<?xml version="1.0" standalone="no"?>
<!DOCTYPE svg PUBLIC "-//W3C//DTD SVG 1.1//EN" "http://www.w3.org/Graphics/SVG/1.1/DTD/svg11.dtd" >
<svg xmlns="http://www.w3.org/2000/svg" xmlns:xlink="http://www.w3.org/1999/xlink" version="1.1">
<metadata>
Created by FontForge 20170910 at Tue May  1 10:30:16 2007
 By Jimmy Wärting
Ambroise (c) 2001, created by Jean-Francois Porchez. Distribued exclusively by Porchez Typofonderie. All rights reserved.
</metadata>
<defs>
<font id="Ambroise-Regular" horiz-adv-x="511" >
  <font-face 
    font-family="Ambroise"
    font-weight="500"
    font-stretch="normal"
    units-per-em="1000"
    panose-1="0 0 0 0 0 0 0 0 0 0"
    ascent="800"
    descent="-200"
    x-height="421"
    cap-height="706"
    bbox="-100.41 -293 1185 998.538"
    underline-thickness="20"
    underline-position="-133"
    stemh="11"
    stemv="14"
    unicode-range="U+0020-FB04"
  />
<missing-glyph horiz-adv-x="500" 
 />
    <glyph glyph-name=".notdef" horiz-adv-x="500" 
 />
    <glyph glyph-name="space" unicode=" " horiz-adv-x="255" 
 />
    <glyph glyph-name="exclam" unicode="!" horiz-adv-x="280" 
d="M211 640c0 -146 -64 -301 -64 -437v-32c0 -6 -1 -9 -6 -9s-7 3 -7 9v32c0 136 -65 291 -65 437c0 40 26 78 71 78s71 -38 71 -78zM198 49c0 -33 -26 -57 -58 -57s-58 24 -58 57s26 57 58 57s58 -24 58 -57z" />
    <glyph glyph-name="quotedbl" unicode="&#x22;" horiz-adv-x="401" 
d="M326 663c0 -56 -46 -95 -46 -173v-14c0 -6 -3 -9 -7 -9s-7 3 -7 9v14c0 78 -46 115 -46 173c0 33 26 55 53 55c28 0 53 -22 53 -55zM181 663c0 -56 -47 -95 -47 -173v-14c0 -6 -2 -9 -7 -9c-4 0 -6 3 -6 9v14c0 78 -47 115 -47 173c0 33 26 55 54 55c27 0 53 -22 53 -55z
" />
    <glyph glyph-name="numbersign" unicode="#" horiz-adv-x="567" 
d="M566 486l-23 -53c-2 -5 -5 -6 -10 -6h-128l-61 -138h122c8 0 9 -5 7 -11l-23 -53c-3 -5 -5 -6 -10 -6h-127l-101 -227c-2 -4 -5 -5 -10 -3c-6 3 -7 6 -5 10l98 220h-147l-101 -227c-2 -4 -4 -5 -10 -3c-5 3 -6 6 -4 10l97 220h-115c-8 0 -9 5 -7 11l23 53c3 5 5 6 10 6
h121l61 138h-114c-8 0 -10 5 -7 11l23 53c2 5 5 6 10 6h120l99 222c2 4 5 6 11 4c5 -3 6 -6 4 -10l-97 -216h147l99 222c2 4 6 6 11 4c6 -3 6 -6 4 -10l-96 -216h122c8 0 10 -5 7 -11zM388 427h-147l-61 -138h147z" />
    <glyph glyph-name="dollar" unicode="$" horiz-adv-x="480" 
d="M443 160c0 -113 -102 -167 -202 -171v-66c0 -8 -2 -11 -8 -11c-5 0 -8 3 -8 11v65c-85 1 -188 32 -188 114c0 34 24 58 55 58c30 0 55 -22 55 -54c0 -39 -28 -40 -28 -63c0 -29 51 -44 106 -44v240c-84 39 -178 78 -178 187c0 88 72 164 178 167v80c0 8 2 11 7 11
c6 0 9 -3 9 -11v-80c84 -2 157 -46 157 -110c0 -32 -23 -55 -53 -55c-29 0 -54 20 -54 52c0 37 28 38 28 60c0 24 -28 41 -78 43v-222c91 -44 202 -81 202 -201zM225 369v214c-60 -2 -102 -34 -102 -92c0 -61 45 -93 102 -122zM362 100c0 67 -56 101 -121 131v-232
c64 3 121 30 121 101z" />
    <glyph glyph-name="percent" unicode="%" horiz-adv-x="837" 
d="M809 206c0 -120 -60 -215 -166 -215c-103 0 -168 94 -168 212c0 121 60 214 167 214c102 0 167 -93 167 -211zM643 629l-438 -684c-2 -4 -5 -6 -11 -3c-5 4 -6 8 -3 12l437 683c3 4 7 6 13 2c5 -3 5 -6 2 -10zM363 381c0 -120 -60 -213 -167 -213
c-103 0 -168 92 -168 210c0 120 60 215 167 215c102 0 168 -94 168 -212zM712 121c4 56 4 115 0 171c-3 46 -6 115 -69 115c-69 0 -68 -69 -72 -119c-4 -56 -4 -114 0 -170c4 -47 9 -117 71 -117c68 0 67 70 70 120zM266 296c4 56 4 115 0 171c-3 46 -9 117 -70 117
c-68 0 -67 -71 -71 -120c-3 -56 -4 -116 0 -172c4 -45 7 -115 69 -115c69 0 69 70 72 119z" />
    <glyph glyph-name="ampersand" unicode="&#x26;" horiz-adv-x="705" 
d="M360 506c5 38 6 83 0 120c-5 41 -17 80 -88 80c-76 0 -84 -38 -90 -81c-5 -38 -5 -83 0 -120c6 -41 19 -79 90 -79c76 0 83 37 88 80zM414 178c-3 11 -5 20 -8 35c-5 24 -12 64 -17 88c-13 65 -36 115 -111 115c-91 0 -98 -66 -104 -123s-6 -120 0 -177
c7 -62 24 -115 95 -115c103 0 127 100 145 177zM695 391c0 -38 -27 -65 -66 -65c-35 0 -66 23 -66 60c0 27 23 44 23 56c0 10 -11 16 -21 16c-56 0 -84 -64 -96 -107c21 -22 37 -54 46 -92c13 -61 31 -133 45 -196c7 -32 20 -48 41 -48c31 0 49 28 53 58c1 8 3 11 9 11
c6 -1 7 -4 6 -10c-10 -64 -61 -84 -111 -84c-70 0 -109 54 -125 105c-5 16 -10 38 -14 57c-18 -81 -49 -164 -165 -164c-137 0 -214 83 -214 219c0 109 62 196 187 214v1c-106 11 -165 71 -165 143c0 84 66 153 209 153c138 0 209 -70 209 -152c0 -75 -56 -130 -156 -144v-1
c55 -5 100 -23 136 -59c19 64 55 113 132 113c46 0 103 -23 103 -84z" />
    <glyph glyph-name="quoteright" unicode="&#x2019;" horiz-adv-x="255" 
d="M193 610c0 -74 -48 -109 -103 -109c-6 0 -26 1 -26 8c0 4 2 7 6 7s13 -3 23 -3c50 0 83 37 83 82c0 17 -7 35 -21 35c-15 0 -23 -15 -45 -15c-27 0 -49 22 -49 49c0 33 23 54 56 54c46 0 76 -45 76 -108z" />
    <glyph glyph-name="parenleft" unicode="(" horiz-adv-x="370" 
d="M358 -288c-4 -6 -9 -2 -14 1c-189 130 -244 328 -244 503s55 374 244 503c5 4 10 8 14 2c3 -3 2 -6 -3 -10c-158 -106 -174 -239 -174 -495s16 -389 174 -495c5 -4 6 -6 3 -9z" />
    <glyph glyph-name="parenright" unicode=")" horiz-adv-x="370" 
d="M270 217c0 -175 -55 -374 -244 -504c-5 -3 -10 -7 -14 -1c-3 3 -2 6 3 10c158 106 174 239 174 495s-16 389 -174 495c-5 3 -6 6 -3 9c4 6 9 2 14 -2c189 -129 244 -328 244 -502z" />
    <glyph glyph-name="asterisk" unicode="*" horiz-adv-x="500" 
d="M454 566c7 -25 -8 -54 -37 -61c-27 -7 -70 2 -113 2c-17 0 -33 -1 -48 -4l-1 -2c39 -42 115 -69 133 -105c14 -27 3 -56 -20 -68c-20 -11 -48 -8 -64 14c-22 31 -25 108 -52 156h-4c-26 -48 -30 -125 -52 -156c-16 -22 -44 -25 -64 -14c-23 12 -34 41 -20 68
c18 36 94 63 133 105l-1 2c-15 4 -33 4 -50 4c-42 0 -84 -9 -110 -2c-30 7 -45 36 -38 61c6 26 33 44 62 37c39 -10 86 -72 137 -96l3 2c-7 56 -49 119 -49 157c0 30 25 52 51 52s51 -22 51 -52c0 -38 -42 -101 -49 -157l3 -2c51 24 98 86 137 96c29 7 56 -11 62 -37z" />
    <glyph glyph-name="plus" unicode="+" horiz-adv-x="390" 
d="M205 295h153c8 0 12 -2 12 -9s-4 -10 -12 -10h-153v-152c0 -9 -3 -14 -10 -14s-11 5 -11 14v152h-151c-8 0 -13 2 -13 9s5 10 13 10h151v151c0 9 3 14 10 14s11 -5 11 -14v-151z" />
    <glyph glyph-name="comma" unicode="," horiz-adv-x="255" 
d="M198 -2c0 -64 -36 -119 -105 -119c-6 0 -27 1 -27 8c0 5 3 8 7 8c4 -1 13 -3 23 -3c52 0 85 44 85 92c0 18 -7 36 -21 36c-15 0 -25 -18 -47 -18c-29 0 -50 24 -50 52c0 33 23 55 57 55c48 0 78 -46 78 -111z" />
    <glyph glyph-name="hyphen" unicode="-" horiz-adv-x="255" 
d="M231 214c0 -3 -2 -6 -10 -6h-186c-8 0 -10 3 -10 6v50c0 3 2 6 10 6h186c8 0 10 -3 10 -6v-50z" />
    <glyph glyph-name="period" unicode="." horiz-adv-x="255" 
d="M189 52c0 -35 -28 -60 -61 -60c-34 0 -61 25 -61 60s27 60 61 60c33 0 61 -25 61 -60z" />
    <glyph glyph-name="slash" unicode="/" horiz-adv-x="255" 
d="M313 728l-356 -799c-2 -4 -4 -6 -10 -3c-6 2 -7 5 -5 10l356 798c2 5 6 7 11 4c6 -2 6 -5 4 -10z" />
    <glyph glyph-name="zero" unicode="0" horiz-adv-x="531" 
d="M503 294c0 -168 -80 -306 -236 -306c-151 0 -239 138 -239 301c0 168 80 304 237 304c151 0 238 -136 238 -299zM367 171c6 80 6 165 0 245c-4 59 -8 167 -100 167c-102 0 -99 -109 -103 -172c-6 -80 -6 -165 0 -245c4 -59 9 -168 101 -168c102 0 97 110 102 173z" />
    <glyph glyph-name="one" unicode="1" horiz-adv-x="331" 
d="M313 6c0 -3 -1 -6 -9 -6h-240c-8 0 -9 3 -9 6s1 6 9 6h60c9 0 11 10 11 42v435h-2c-15 -68 -59 -143 -94 -188c-4 -6 -10 -8 -14 -4c-4 5 -2 8 2 13c23 29 108 151 108 265c0 3 2 7 10 7h91c8 0 10 -3 10 -6v-522c0 -32 1 -42 10 -42h48c8 0 9 -3 9 -6z" />
    <glyph glyph-name="two" unicode="2" horiz-adv-x="496" 
d="M463 9c0 -5 -5 -9 -9 -9h-421c-3 0 -5 3 -5 6c0 4 0 7 2 8c233 146 270 222 270 406c0 143 -40 162 -99 162c-49 0 -81 -17 -81 -42s31 -27 31 -70c0 -35 -28 -57 -60 -57c-35 0 -61 24 -61 61c0 72 86 119 179 119c77 0 219 -25 219 -172c0 -120 -89 -200 -268 -333v-1
h256c25 0 35 7 35 37v26c0 7 3 9 6 9s6 -1 6 -8v-142z" />
    <glyph glyph-name="three" unicode="3" horiz-adv-x="495" 
d="M449 205c0 -143 -108 -217 -230 -217c-118 0 -191 59 -191 125c0 38 27 64 63 64c32 0 61 -24 61 -61c0 -44 -33 -47 -33 -70c0 -14 24 -48 98 -48c61 0 97 29 101 125c3 50 3 85 1 136c-2 114 -55 125 -93 125h-74c-10 0 -11 3 -11 7s2 6 11 6h70c57 0 79 54 79 161
c0 123 -42 149 -97 149s-83 -19 -83 -42c0 -24 31 -26 31 -69c0 -34 -27 -57 -60 -57c-34 0 -60 25 -60 61c0 71 85 118 178 118c119 0 217 -51 217 -159c0 -88 -67 -146 -162 -164v-1c56 -4 184 -40 184 -189z" />
    <glyph glyph-name="four" unicode="4" horiz-adv-x="497" 
d="M496 54c1 -4 2 -7 -8 -13c-21 -13 -47 -28 -94 -30c-8 0 -10 -4 -10 -9v-121c0 -4 -1 -8 -8 -7c-11 1 -31 3 -47 3c-17 0 -37 -2 -47 -3c-8 -1 -9 3 -9 7v136c0 5 -2 9 -10 11c-37 11 -75 25 -118 25c-41 0 -97 -20 -132 -70c-3 -5 -7 -8 -12 -3c-4 3 -3 7 2 14
c173 226 235 308 233 580c0 4 3 6 7 6c12 -1 32 0 47 2c25 2 47 6 64 12c5 2 8 -1 7 -8c-20 -227 -169 -382 -312 -551v-2c32 25 69 33 99 33c41 0 79 -14 116 -25c7 -2 9 -1 9 8v209c0 6 1 10 8 14c27 17 66 51 88 83c2 3 5 6 9 6c5 0 6 -3 6 -8v-321c0 -8 1 -9 9 -9
c43 2 67 15 91 31c5 4 9 5 12 0z" />
    <glyph glyph-name="five" unicode="5" horiz-adv-x="482" 
d="M440 210c0 -147 -111 -222 -230 -222c-106 0 -191 52 -191 125c0 37 26 64 62 64c35 0 62 -26 62 -61c0 -44 -33 -47 -33 -70c0 -17 29 -47 98 -47c60 0 96 31 101 128c3 52 3 93 1 146c-2 88 -26 127 -113 127c-36 0 -70 -9 -87 -17c1 -5 2 -13 2 -19
c0 -12 -5 -24 -18 -24c-15 0 -32 11 -32 27c0 10 13 18 22 21c6 3 7 5 7 13v232c0 7 -1 11 -4 19c-4 9 -6 18 -6 28c0 19 5 38 27 38c17 0 30 -13 30 -29c0 -20 -15 -34 -31 -44c22 -40 87 -72 138 -72c21 0 73 5 73 34c0 17 -28 27 -28 59c0 30 25 52 62 52
c32 0 61 -20 61 -56c0 -71 -91 -100 -164 -100c-58 0 -114 26 -146 63v-230c30 10 67 17 111 17c121 0 226 -77 226 -202z" />
    <glyph glyph-name="six" unicode="6" horiz-adv-x="542" 
d="M499 210c0 -149 -119 -222 -219 -222c-108 0 -234 56 -234 307c0 165 48 423 263 423c92 0 170 -54 170 -115c0 -36 -22 -65 -61 -65c-32 0 -60 23 -60 57c0 43 32 43 32 68c0 12 -18 44 -84 44c-107 0 -115 -99 -121 -175c-5 -64 -7 -137 -7 -179h1c27 51 67 68 116 68
c120 0 204 -86 204 -211zM368 117c6 56 6 118 0 174c-5 53 -16 117 -93 117c-63 0 -90 -60 -95 -119c-6 -56 -6 -118 0 -174c5 -53 17 -117 94 -117c83 0 89 64 94 119z" />
    <glyph glyph-name="seven" unicode="7" horiz-adv-x="458" 
d="M456 581c0 -3 -1 -6 -4 -10c-183 -249 -253 -444 -270 -689c-1 -7 -3 -8 -9 -7c-13 1 -29 0 -45 -1c-25 -2 -50 -6 -62 -11c-8 -2 -12 2 -10 9c46 197 136 363 340 639l-1 2c-77 -38 -156 -51 -230 -51c-49 0 -91 4 -135 16v-98c0 -7 -3 -9 -6 -9s-7 1 -7 8v199
c0 6 4 11 10 10c63 -8 150 -13 211 -13c66 0 152 5 211 13c4 1 7 -3 7 -7z" />
    <glyph glyph-name="eight" unicode="8" horiz-adv-x="525" 
d="M487 184c0 -108 -81 -196 -224 -196c-138 0 -225 88 -225 194c0 94 61 173 171 191v1c-89 19 -144 86 -144 166c0 98 72 178 197 178c120 0 198 -80 198 -176c0 -83 -52 -151 -144 -169v-1c106 -19 171 -97 171 -188zM341 471c5 45 5 97 0 141c-5 48 -16 95 -78 95
c-67 0 -74 -46 -79 -97c-4 -45 -4 -97 0 -141c5 -48 17 -92 79 -92c66 0 73 42 78 94zM357 105c6 49 6 108 0 156c-5 54 -19 106 -94 106c-80 0 -89 -51 -95 -107c-5 -50 -5 -109 0 -157c6 -54 19 -105 95 -105c80 0 89 50 94 107z" />
    <glyph glyph-name="nine" unicode="9" horiz-adv-x="542" 
d="M495 286c0 -165 -48 -423 -262 -423c-92 0 -170 54 -170 114c0 37 22 66 61 66c32 0 60 -24 60 -58c0 -42 -32 -42 -32 -67c0 -12 18 -44 84 -44c106 0 115 99 121 175c5 64 7 137 7 179h-1c-27 -51 -67 -68 -116 -68c-120 0 -205 86 -205 211c0 149 120 222 220 222
c108 0 233 -56 233 -307zM362 292c5 56 6 118 0 174c-5 53 -17 116 -94 116c-83 0 -89 -63 -95 -119c-5 -56 -5 -117 0 -173c6 -53 17 -117 93 -117c64 0 91 60 96 119z" />
    <glyph glyph-name="colon" unicode=":" horiz-adv-x="255" 
d="M189 337c0 -35 -28 -60 -61 -60c-34 0 -61 25 -61 60c0 34 27 59 61 59c33 0 61 -25 61 -59zM189 52c0 -35 -28 -60 -61 -60c-34 0 -61 25 -61 60s27 60 61 60c33 0 61 -25 61 -60z" />
    <glyph glyph-name="semicolon" unicode=";" horiz-adv-x="255" 
d="M188 337c0 -35 -28 -60 -61 -60s-61 25 -61 60c0 34 28 59 61 59s61 -25 61 -59zM196 -2c0 -64 -36 -119 -105 -119c-6 0 -27 1 -27 8c0 5 3 8 7 8c4 -1 13 -3 23 -3c51 0 85 44 85 92c0 18 -7 36 -21 36c-15 0 -25 -18 -47 -18c-29 0 -50 24 -50 52c0 33 23 55 57 55
c48 0 78 -46 78 -111z" />
    <glyph glyph-name="less" unicode="&#x3c;" horiz-adv-x="390" 
d="M365 134c-3 -6 -8 -8 -16 -4l-315 142c-6 3 -9 8 -9 13c0 6 3 11 9 14l315 142c8 4 13 2 16 -4s-1 -11 -9 -15l-306 -136l306 -137c8 -4 12 -9 9 -15z" />
    <glyph glyph-name="equal" unicode="=" horiz-adv-x="390" 
d="M360 376c0 -7 -4 -10 -12 -10h-305c-8 0 -13 2 -13 9s5 10 13 10h305c8 0 12 -2 12 -9zM360 196c0 -7 -4 -10 -12 -10h-305c-8 0 -13 2 -13 9s5 10 13 10h305c8 0 12 -2 12 -9z" />
    <glyph glyph-name="greater" unicode="&#x3e;" horiz-adv-x="390" 
d="M365 286c0 -6 -3 -11 -9 -14l-315 -142c-8 -4 -13 -2 -16 4s1 11 9 15l306 136l-306 137c-8 4 -12 9 -9 15s8 8 16 4l315 -142c6 -3 9 -8 9 -13z" />
    <glyph glyph-name="question" unicode="?" horiz-adv-x="453" 
d="M433 505c0 -113 -87 -206 -203 -206c-29 0 -51 4 -67 9v-137c0 -6 -2 -9 -7 -9s-7 3 -7 9v133c0 7 -2 9 -8 13c-17 9 -24 20 -24 27c0 15 15 27 31 27c13 0 20 -10 20 -24c0 -6 -3 -17 -4 -22c13 -8 34 -14 62 -14c61 0 83 41 85 128c1 51 1 90 -1 141
c-5 91 -27 127 -89 127c-42 0 -78 -19 -78 -44c0 -22 30 -25 30 -65c0 -33 -24 -57 -56 -57c-34 0 -58 25 -58 60c0 66 80 117 166 117c105 0 208 -68 208 -213zM213 49c0 -33 -26 -57 -57 -57c-32 0 -58 24 -58 57s26 57 58 57c31 0 57 -24 57 -57z" />
    <glyph glyph-name="at" unicode="@" horiz-adv-x="699" 
d="M664 225c0 -205 -104 -321 -317 -321c-208 0 -311 86 -311 267c0 169 98 262 272 262c84 0 189 -28 189 -130v-227c0 -16 3 -28 20 -28c11 0 27 9 34 24c2 4 3 6 8 4c3 -1 4 -3 2 -8c-10 -18 -34 -38 -81 -38c-44 0 -72 21 -77 56h-2c-26 -41 -64 -56 -115 -56
c-67 0 -125 38 -125 116c0 73 37 103 88 115c27 7 75 19 101 28c35 13 50 18 50 41v17c0 62 -40 76 -93 76c-147 0 -236 -64 -236 -258c0 -190 103 -250 277 -250c187 0 281 83 281 310c0 257 -155 316 -282 316c-101 0 -197 -33 -248 -123c-5 -9 -7 -14 -15 -10
c-4 2 -6 6 -2 13c49 83 137 131 265 131c190 0 317 -116 317 -327zM400 121v178c-87 -36 -128 -41 -132 -119c-2 -29 -2 -55 1 -85c2 -25 10 -51 49 -51s82 38 82 77z" />
    <glyph glyph-name="A" unicode="A" horiz-adv-x="637" 
d="M635 6c0 -3 -1 -6 -9 -6h-238c-8 0 -9 3 -9 6s1 6 9 6h41c18 0 24 8 10 50l-67 199c-1 3 -1 6 -8 6h-195c-7 0 -7 -3 -8 -6l-20 -61c-24 -76 -41 -188 39 -188h22c8 0 9 -3 9 -6s-1 -6 -9 -6h-191c-8 0 -9 3 -9 6s1 6 9 6h3c32 0 61 28 112 190l159 508c1 4 4 6 9 6h44
c5 0 7 -2 9 -6l223 -648c15 -43 21 -50 37 -50h19c8 0 9 -3 9 -6zM363 287l-99 306h-2l-94 -308c-1 -3 1 -6 8 -6h178c7 0 10 5 9 8z" />
    <glyph glyph-name="B" unicode="B" horiz-adv-x="622" 
d="M575 187c0 -108 -77 -187 -214 -187h-320c-8 0 -9 3 -9 6s1 6 9 6h45c10 0 11 10 11 42v598c0 32 -1 42 -11 42h-45c-8 0 -9 3 -9 6s1 6 9 6h292c97 0 214 -39 214 -172c0 -109 -107 -156 -170 -162v-1c85 0 198 -55 198 -184zM425 533c0 127 -41 161 -95 161h-103
c-7 0 -10 -3 -10 -6v-306c0 -3 2 -6 9 -6h106c58 0 93 35 93 157zM439 188c0 157 -56 177 -97 177h-115c-7 0 -10 -3 -10 -6v-341c0 -3 2 -6 9 -6h109c69 0 104 38 104 176z" />
    <glyph glyph-name="C" unicode="C" horiz-adv-x="588" 
d="M554 7c0 -8 -5 -10 -8 -10s-5 1 -5 10v7c0 20 -25 9 -48 1c-51 -19 -117 -27 -162 -27c-209 0 -298 187 -298 361c0 204 93 369 294 369c52 0 108 -16 134 -26c21 -8 46 -20 46 0v7c0 9 2 10 5 10s8 -2 8 -10v-241c0 -7 -4 -9 -7 -9s-6 1 -6 9v11c0 158 -85 239 -179 239
c-146 0 -140 -141 -145 -211c-7 -97 -7 -196 0 -293c8 -108 23 -205 151 -205c123 0 207 95 207 247v17c0 8 3 9 6 9s7 -2 7 -9v-256z" />
    <glyph glyph-name="D" unicode="D" horiz-adv-x="657" 
d="M624 356c0 -195 -93 -356 -295 -356h-288c-8 0 -9 3 -9 6s1 6 9 6h45c10 0 11 10 11 42v598c0 32 -1 42 -11 42h-45c-8 0 -9 3 -9 6s1 6 9 6h288c192 0 295 -163 295 -350zM474 210c7 97 7 196 0 293c-5 65 -16 191 -145 191h-102c-7 0 -10 -3 -10 -6v-670
c0 -3 2 -6 9 -6h102c138 0 140 119 146 198z" />
    <glyph glyph-name="E" unicode="E" horiz-adv-x="580" 
d="M532 7c0 -4 -2 -7 -9 -7h-482c-8 0 -9 3 -9 6s1 6 9 6h45c10 0 11 10 11 42v598c0 32 -1 42 -11 42h-45c-8 0 -9 3 -9 6s1 6 9 6h449c7 0 9 -4 9 -8v-215c0 -7 -3 -8 -6 -8c-4 0 -8 0 -8 8v11c0 106 -54 200 -158 200h-100c-7 0 -10 -3 -10 -6v-308c0 -3 2 -5 9 -5h60
c55 0 102 42 102 100v8c0 8 3 9 6 9s6 -2 6 -9v-228c0 -7 -3 -9 -6 -9s-6 1 -6 9v7c0 59 -47 102 -102 102h-59c-7 0 -10 -3 -10 -6v-340c0 -3 2 -6 9 -6h94c154 0 198 136 198 208v9c0 8 4 9 7 9c4 0 7 -2 7 -9v-222z" />
    <glyph glyph-name="F" unicode="F" horiz-adv-x="550" 
d="M502 470c0 -7 -3 -8 -6 -8s-7 0 -7 8v20c0 106 -56 204 -161 204h-101c-7 0 -10 -3 -10 -6v-325c0 -3 2 -6 9 -6h62c56 0 103 43 103 100v9c0 8 3 9 6 9s6 -2 6 -9v-239c0 -7 -3 -9 -6 -9s-6 1 -6 9v15c0 59 -47 105 -103 105h-61c-7 0 -10 -3 -10 -6v-287
c0 -32 1 -42 10 -42h69c8 0 9 -3 9 -6s-1 -6 -9 -6h-255c-8 0 -9 3 -9 6s1 6 9 6h45c10 0 11 10 11 42v598c0 32 -1 42 -11 42h-45c-8 0 -9 3 -9 6s1 6 9 6h452c8 0 9 -4 9 -8v-228z" />
    <glyph glyph-name="G" unicode="G" horiz-adv-x="642" 
d="M625 284c0 -3 -1 -6 -9 -6h-46c-9 0 -10 -10 -10 -42v-228c0 -8 -3 -10 -6 -10c-4 0 -8 1 -8 10v3c0 11 -9 19 -38 19c-64 0 -98 -42 -184 -42c-195 0 -290 173 -290 361c0 204 93 369 294 369c52 0 108 -16 134 -26c21 -8 46 -20 46 0v7c0 9 2 10 5 10s8 -2 8 -10v-233
c0 -7 -3 -9 -6 -9s-7 1 -7 9v12c0 157 -84 230 -179 230c-141 0 -139 -128 -145 -211c-7 -97 -7 -196 0 -293c5 -71 5 -206 140 -206c76 0 116 37 116 112v126c0 32 -2 42 -11 42h-71c-8 0 -9 3 -9 6s1 6 9 6h258c8 0 9 -3 9 -6z" />
    <glyph glyph-name="H" unicode="H" horiz-adv-x="705" 
d="M674 6c0 -3 -1 -6 -9 -6h-232c-8 0 -10 3 -10 6s1 6 10 6h45c9 0 10 10 10 42v299c0 3 -2 7 -9 7h-254c-7 0 -8 -4 -8 -7v-299c0 -32 1 -42 10 -42h46c8 0 9 -3 9 -6s-1 -6 -9 -6h-232c-8 0 -9 3 -9 6s1 6 9 6h45c10 0 11 10 11 42v598c0 32 -1 42 -11 42h-45
c-8 0 -9 3 -9 6s1 6 9 6h232c8 0 9 -3 9 -6s-1 -6 -9 -6h-46c-9 0 -10 -10 -10 -42v-275c0 -3 1 -7 8 -7h254c7 0 9 5 9 8v274c0 32 -1 42 -10 42h-45c-9 0 -10 3 -10 6s2 6 10 6h232c8 0 9 -3 9 -6s-1 -6 -9 -6h-46c-9 0 -10 -10 -10 -42v-598c0 -32 1 -42 10 -42h46
c8 0 9 -3 9 -6z" />
    <glyph glyph-name="I" unicode="I" horiz-adv-x="313" 
d="M282 6c0 -3 -1 -6 -9 -6h-232c-8 0 -9 3 -9 6s1 6 9 6h45c10 0 11 10 11 42v598c0 32 -1 42 -11 42h-45c-8 0 -9 3 -9 6s1 6 9 6h232c8 0 9 -3 9 -6s-1 -6 -9 -6h-46c-9 0 -10 -10 -10 -42v-598c0 -32 1 -42 10 -42h46c8 0 9 -3 9 -6z" />
    <glyph glyph-name="J" unicode="J" horiz-adv-x="452" 
d="M432 700c0 -3 -1 -6 -9 -6h-45c-10 0 -11 -10 -11 -42v-460c0 -106 -60 -204 -186 -204c-77 0 -165 41 -165 120c0 42 30 73 71 73c38 0 71 -27 71 -69c0 -46 -37 -53 -37 -80c0 -23 28 -34 59 -34c58 0 67 42 67 74v580c0 32 -1 42 -10 42h-53c-8 0 -9 3 -9 6s1 6 9 6
h239c8 0 9 -3 9 -6z" />
    <glyph glyph-name="K" unicode="K" horiz-adv-x="635" 
d="M621 44c5 -1 5 -6 2 -11c-13 -25 -40 -45 -84 -45c-78 0 -127 48 -127 121c0 50 1 89 1 137c-1 76 -21 125 -97 125h-89c-9 0 -10 -4 -10 -7v-310c0 -32 1 -42 10 -42h46c8 0 9 -3 9 -6s-1 -6 -9 -6h-232c-8 0 -9 3 -9 6s1 6 9 6h45c10 0 11 10 11 42v598
c0 32 -1 42 -11 42h-45c-8 0 -9 3 -9 6s1 6 9 6h232c8 0 9 -3 9 -6s-1 -6 -9 -6h-46c-9 0 -10 -10 -10 -42v-266c0 -3 2 -4 9 -4h50c53 0 71 24 71 79c0 50 -16 103 -16 154c0 58 39 103 110 103c66 0 110 -45 110 -93c0 -43 -28 -74 -70 -74c-38 0 -70 28 -70 68
c0 32 31 44 31 63c0 13 -8 19 -24 19c-49 0 -74 -45 -74 -84c0 -51 16 -112 16 -161c0 -29 -5 -59 -34 -74v-1c99 5 208 -52 208 -200c0 -37 -1 -97 -1 -122c0 -22 1 -55 34 -55c17 0 35 13 44 33c2 5 4 8 10 7z" />
    <glyph glyph-name="L" unicode="L" horiz-adv-x="573" 
d="M533 7c0 -4 -1 -7 -8 -7h-484c-8 0 -9 3 -9 6s1 6 9 6h45c10 0 11 10 11 42v598c0 32 -1 42 -11 42h-45c-8 0 -9 3 -9 6s1 6 9 6h251c8 0 9 -3 9 -6s-1 -6 -9 -6h-65c-9 0 -10 -10 -10 -42v-634c0 -3 2 -6 9 -6h95c154 0 199 141 199 228v25c0 9 3 10 6 10s7 -2 7 -10
v-258z" />
    <glyph glyph-name="M" unicode="M" horiz-adv-x="761" 
d="M730 6c0 -3 -2 -6 -10 -6h-231c-8 0 -10 3 -10 6s1 6 10 6h45c9 0 10 10 10 42v615h-1l-167 -669c-2 -8 -4 -10 -10 -10h-41c-6 0 -9 3 -10 9l-201 670h-1v-425c0 -192 22 -232 88 -232h9c8 0 9 -3 9 -6s-1 -6 -9 -6h-174c-8 0 -9 3 -9 6s1 6 9 6h2c48 0 62 38 62 225
v415c0 32 -1 42 -10 42h-48c-8 0 -9 3 -9 6s1 6 9 6h177c6 0 11 -2 12 -8l164 -567h1l141 567c2 6 5 8 11 8h172c8 0 10 -3 10 -6s-1 -6 -10 -6h-45c-9 0 -10 -10 -10 -42v-598c0 -32 1 -42 10 -42h45c9 0 10 -3 10 -6z" />
    <glyph glyph-name="N" unicode="N" horiz-adv-x="673" 
d="M646 700c0 -3 -1 -6 -9 -6h-2c-48 0 -62 -38 -62 -224v-474c0 -3 -2 -6 -10 -6h-50c-7 0 -9 3 -10 6l-389 655h-1v-407c0 -166 26 -232 106 -232h13c8 0 9 -3 9 -6s-1 -6 -9 -6h-196c-8 0 -9 3 -9 6s1 6 9 6h2c48 0 62 38 62 225v415c0 32 -1 42 -10 42h-48
c-8 0 -9 3 -9 6s1 6 9 6h172c5 0 8 -3 10 -6l334 -565h2v327c0 166 -27 232 -106 232h-11c-9 0 -10 3 -10 6s2 6 10 6h194c8 0 9 -3 9 -6z" />
    <glyph glyph-name="O" unicode="O" horiz-adv-x="657" 
d="M625 356c0 -202 -95 -368 -295 -368c-192 0 -297 165 -297 362c0 202 95 368 294 368c192 0 298 -165 298 -362zM474 209c8 97 8 198 0 295c-5 63 -7 204 -142 204c-154 0 -144 -141 -149 -211c-8 -97 -7 -197 0 -294c5 -63 7 -205 142 -205c154 0 144 141 149 211z" />
    <glyph glyph-name="P" unicode="P" horiz-adv-x="594" 
d="M556 509c0 -141 -110 -198 -214 -198h-115c-7 0 -10 -5 -10 -8v-249c0 -32 1 -42 10 -42h65c8 0 9 -3 9 -6s-1 -6 -9 -6h-251c-8 0 -9 3 -9 6s1 6 9 6h45c10 0 11 10 11 42v598c0 32 -1 42 -11 42h-45c-8 0 -9 3 -9 6s1 6 9 6h297c104 0 218 -52 218 -197zM424 510
c0 136 -35 184 -103 184h-94c-7 0 -10 -3 -10 -6v-359c0 -3 2 -6 9 -6h96c67 0 102 44 102 187z" />
    <glyph glyph-name="Q" unicode="Q" horiz-adv-x="657" 
d="M625 356c0 -195 -87 -354 -270 -367l-1 -1c65 -24 78 -83 75 -142c-2 -39 -13 -91 39 -91c18 0 36 8 36 22c0 26 -30 24 -30 62c0 23 17 54 56 54c28 0 58 -19 58 -60c0 -57 -60 -88 -121 -88c-96 0 -152 58 -150 152c1 50 3 83 -33 83c-23 0 -38 -19 -49 -46
c-3 -5 -4 -10 -11 -9c-5 2 -5 6 -3 12c13 29 28 47 57 54v1c-159 27 -245 179 -245 358c0 202 95 368 294 368c192 0 298 -165 298 -362zM474 209c8 97 8 198 0 295c-5 63 -7 204 -142 204c-154 0 -144 -141 -149 -211c-8 -97 -7 -197 0 -294c5 -63 7 -205 142 -205
c154 0 144 141 149 211z" />
    <glyph glyph-name="R" unicode="R" horiz-adv-x="643" 
d="M629 44c5 -1 5 -6 2 -11c-13 -25 -41 -45 -85 -45c-76 0 -126 48 -126 119c0 50 1 86 1 134c-1 75 -20 124 -96 124h-98c-7 0 -10 -3 -10 -6v-305c0 -32 1 -42 10 -42h46c8 0 9 -3 9 -6s-1 -6 -9 -6h-232c-8 0 -9 3 -9 6s1 6 9 6h45c10 0 11 10 11 42v598
c0 32 -1 42 -11 42h-45c-8 0 -9 3 -9 6s1 6 9 6h292c97 0 214 -38 214 -172c0 -100 -93 -155 -178 -163v-1c99 -12 174 -76 173 -194c0 -37 -1 -92 -1 -117c0 -22 1 -55 34 -55c17 0 35 13 44 33c2 5 4 8 10 7zM425 533c0 127 -41 161 -95 161h-103c-7 0 -10 -3 -10 -6v-306
c0 -3 2 -6 9 -6h106c57 0 93 35 93 157z" />
    <glyph glyph-name="S" unicode="S" horiz-adv-x="528" 
d="M496 195c0 -111 -93 -207 -236 -207c-61 0 -108 15 -146 28c-30 11 -52 18 -52 -2v-6c0 -9 -4 -10 -7 -10s-7 2 -7 10v253c0 8 4 9 7 9s7 0 7 -9v-10c0 -100 53 -252 199 -252c93 0 141 50 141 123c0 199 -350 165 -350 396c0 100 72 201 203 201c44 0 82 -13 119 -27
c20 -8 44 -20 44 0v7c0 9 4 10 7 10s7 -2 7 -10v-220c0 -7 -4 -9 -7 -9s-7 1 -7 9v9c0 134 -68 219 -171 219c-65 0 -108 -40 -108 -111c0 -204 357 -165 357 -401z" />
    <glyph glyph-name="T" unicode="T" horiz-adv-x="634" 
d="M614 470c0 -7 -4 -8 -7 -8c-4 0 -7 0 -7 8v20c0 112 -53 204 -154 204h-61c-7 0 -8 -3 -8 -6v-634c0 -32 1 -42 10 -42h48c8 0 9 -3 9 -6s-1 -6 -9 -6h-236c-8 0 -10 3 -10 6s1 6 10 6h47c10 0 11 10 11 42v634c0 3 -1 6 -9 6h-61c-100 0 -154 -92 -154 -204v-20
c0 -8 -3 -8 -6 -8s-7 1 -7 8v228c0 4 1 8 9 8h576c7 0 9 -4 9 -8v-228z" />
    <glyph glyph-name="U" unicode="U" horiz-adv-x="672" 
d="M651 700c0 -3 -1 -6 -9 -6h-3c-47 0 -61 -38 -61 -224v-262c0 -134 -56 -220 -232 -220c-162 0 -257 97 -257 197v467c0 32 -1 42 -10 42h-46c-8 0 -9 3 -9 6s1 6 9 6h240c8 0 10 -3 10 -6s-1 -6 -10 -6h-53c-10 0 -11 -10 -11 -42v-507c0 -96 60 -143 152 -143
c161 0 203 83 203 209v251c0 166 -17 232 -91 232h-12c-8 0 -9 3 -9 6s1 6 9 6h181c8 0 9 -3 9 -6z" />
    <glyph glyph-name="V" unicode="V" horiz-adv-x="629" 
d="M627 700c0 -3 -1 -6 -9 -6h-3c-32 0 -62 -28 -112 -190l-155 -508c-1 -4 -4 -6 -9 -6h-44c-5 0 -8 2 -9 6l-219 648c-14 43 -21 50 -37 50h-19c-8 0 -9 3 -9 6s1 6 9 6h238c8 0 9 -3 9 -6s-1 -6 -9 -6h-41c-18 0 -23 -8 -10 -50l169 -531h3l118 394c22 76 41 187 -39 187
h-22c-8 0 -9 3 -9 6s1 6 9 6h191c8 0 9 -3 9 -6z" />
    <glyph glyph-name="W" unicode="W" horiz-adv-x="1055" 
d="M1053 700c0 -3 -1 -6 -9 -6h-2c-32 0 -63 -28 -112 -190l-155 -508c-2 -4 -4 -6 -10 -6h-43c-6 0 -8 2 -9 6l-191 571h-2l-172 -571c-1 -4 -4 -6 -9 -6h-44c-5 0 -8 2 -9 6l-219 648c-14 43 -21 50 -37 50h-19c-8 0 -9 3 -9 6s1 6 9 6h238c8 0 9 -3 9 -6s-1 -6 -9 -6h-41
c-18 0 -23 -8 -10 -50l169 -531h3l115 394c23 76 42 187 -38 187h-22c-9 0 -10 3 -10 6s2 6 10 6h253c8 0 9 -3 9 -6s-1 -6 -9 -6h-41c-18 0 -23 -8 -10 -50l167 -531h2l118 394c23 76 42 187 -38 187h-22c-9 0 -10 3 -10 6s2 6 10 6h190c8 0 9 -3 9 -6z" />
    <glyph glyph-name="X" unicode="X" horiz-adv-x="650" 
d="M657 6c0 -3 -2 -6 -10 -6h-248c-8 0 -9 3 -9 6s1 6 9 6h47c18 0 19 11 -10 61l-146 244c-41 -65 -108 -173 -134 -225c-25 -48 -10 -80 37 -80h18c8 0 9 -3 9 -6s-1 -6 -9 -6h-190c-8 0 -9 3 -9 6s1 6 9 6h4c57 0 82 46 119 101c39 59 100 156 135 210c3 6 3 8 0 13
l-179 299c-32 53 -41 59 -58 59h-12c-8 0 -9 3 -9 6s1 6 9 6h249c8 0 9 -3 9 -6s-1 -6 -9 -6h-47c-19 0 -20 -11 10 -61l120 -201c35 58 77 130 101 182c24 50 10 80 -38 80h-17c-8 0 -9 3 -9 6s1 6 9 6h190c8 0 10 -3 10 -6s-1 -6 -10 -6h-5c-56 0 -81 -45 -117 -101
c-33 -52 -72 -117 -102 -165c-4 -7 -3 -12 -1 -15l205 -342c31 -53 41 -59 58 -59h11c9 0 10 -3 10 -6z" />
    <glyph glyph-name="Y" unicode="Y" horiz-adv-x="661" 
d="M659 700c0 -3 -1 -6 -9 -6h-3c-57 0 -82 -48 -118 -104c-41 -64 -112 -178 -145 -233c-5 -8 -4 -9 -4 -19v-284c0 -32 1 -42 10 -42h46c8 0 9 -3 9 -6s-1 -6 -9 -6h-232c-8 0 -10 3 -10 6s1 6 10 6h45c9 0 11 10 11 42v276c0 6 -2 11 -6 18l-172 287
c-32 53 -41 59 -58 59h-13c-8 0 -9 3 -9 6s1 6 9 6h249c8 0 9 -3 9 -6s-1 -6 -9 -6h-47c-18 0 -21 -11 9 -61l156 -262c42 68 113 189 141 244c24 46 10 79 -40 79h-18c-8 0 -9 3 -9 6s1 6 9 6h189c8 0 9 -3 9 -6z" />
    <glyph glyph-name="Z" unicode="Z" horiz-adv-x="582" 
d="M534 8c0 -4 -2 -8 -9 -8h-482c-4 0 -6 1 -6 5c0 3 1 8 3 11l355 676v2h-138c-113 0 -166 -99 -166 -208v-21c0 -8 -3 -8 -6 -8s-7 1 -7 8v233c0 4 1 8 9 8h438c4 0 6 -1 6 -5c0 -3 -3 -8 -4 -11l-352 -675v-3h155c124 0 190 132 190 234v30c0 8 3 8 7 8c3 0 7 -1 7 -8
v-268z" />
    <glyph glyph-name="bracketleft" unicode="[" horiz-adv-x="370" 
d="M311 -277c0 -3 -2 -5 -8 -5h-187c-8 0 -8 1 -8 30v934c0 29 0 30 8 30h187c6 0 8 -2 8 -5c0 -2 -1 -6 -8 -6h-127c-9 0 -10 -2 -10 -30v-912c0 -28 1 -30 10 -30h127c7 0 8 -4 8 -6z" />
    <glyph glyph-name="backslash" unicode="\" horiz-adv-x="255" 
d="M326 -64c2 -5 1 -8 -5 -10c-6 -3 -8 -1 -10 3l-357 799c-2 5 -1 8 4 10c6 3 9 1 11 -4z" />
    <glyph glyph-name="bracketright" unicode="]" horiz-adv-x="370" 
d="M262 -252c0 -29 0 -30 -8 -30h-187c-6 0 -8 2 -8 5c0 2 1 6 8 6h127c9 0 10 2 10 30v912c0 28 -1 30 -10 30h-127c-7 0 -8 4 -8 6c0 3 2 5 8 5h187c8 0 8 -1 8 -30v-934z" />
    <glyph glyph-name="asciicircum" unicode="^" horiz-adv-x="390" 
d="M351 401c4 -8 2 -13 -4 -16s-11 1 -15 9l-136 306l-137 -306c-4 -8 -9 -12 -15 -9s-8 8 -4 16l142 315c3 6 8 9 13 9c6 0 11 -3 14 -9z" />
    <glyph glyph-name="underscore" unicode="_" horiz-adv-x="500" 
d="M470 -119c0 -3 -2 -6 -10 -6h-420c-8 0 -10 3 -10 6v15c0 3 2 6 10 6h420c8 0 10 -3 10 -6v-15z" />
    <glyph glyph-name="quoteleft" unicode="&#x2018;" horiz-adv-x="255" 
d="M194 555c0 -33 -23 -54 -55 -54c-47 0 -76 44 -76 108c0 73 47 109 103 109c5 0 26 -2 26 -8c0 -5 -2 -8 -7 -8c-4 1 -12 3 -23 3c-50 0 -83 -36 -83 -82c0 -17 8 -34 21 -34c15 0 24 15 46 15c27 0 48 -23 48 -49z" />
    <glyph glyph-name="a" unicode="a" horiz-adv-x="443" 
d="M439 35c3 -1 5 -3 2 -8c-10 -17 -36 -39 -84 -39c-46 0 -76 21 -81 57h-2c-26 -42 -63 -57 -118 -57c-82 0 -130 46 -130 109c0 65 38 96 91 108c29 7 77 19 104 29c37 12 52 19 52 43v63c0 72 -33 83 -73 83c-61 0 -76 -20 -76 -35c0 -21 29 -22 29 -57
c0 -30 -24 -47 -52 -47c-30 0 -52 21 -52 51c0 58 74 98 152 98c103 0 175 -49 175 -143v-255c0 -16 4 -29 20 -29c13 0 28 11 35 25c3 4 4 6 8 4zM273 80v164c-88 -37 -130 -43 -134 -120c-1 -21 -1 -52 1 -72c2 -23 10 -50 50 -50c44 0 83 40 83 78z" />
    <glyph glyph-name="b" unicode="b" horiz-adv-x="503" 
d="M479 211c0 -145 -93 -223 -196 -223c-57 0 -91 28 -108 57h-2v-40c0 -3 -2 -5 -9 -5h-143c-7 0 -8 2 -8 5s1 5 8 5h42c8 0 9 9 9 38v609c0 29 -1 39 -9 39h-42c-7 0 -8 2 -8 5s1 5 8 5h146c7 0 8 -2 8 -5v-323h1c18 28 51 55 107 55c103 0 196 -77 196 -222zM356 129
c5 49 4 121 0 163c-7 82 -23 130 -90 130c-61 0 -91 -57 -91 -82v-259c0 -25 30 -82 91 -82c67 0 83 48 90 130z" />
    <glyph glyph-name="c" unicode="c" horiz-adv-x="420" 
d="M398 153c0 -74 -44 -165 -162 -165c-144 0 -212 98 -212 221c0 105 51 224 210 224c73 0 153 -38 153 -106c0 -35 -25 -58 -56 -58s-56 21 -56 54c0 40 28 43 28 65s-29 35 -66 35c-68 0 -81 -44 -88 -116c-6 -58 -6 -129 -1 -188c5 -56 30 -118 103 -118
c64 0 130 53 130 147c0 10 0 16 9 16c5 0 8 -3 8 -11z" />
    <glyph glyph-name="d" unicode="d" horiz-adv-x="497" 
d="M490 5c0 -3 -1 -5 -8 -5h-143c-7 0 -9 2 -9 5v40h-2c-17 -29 -51 -57 -108 -57c-103 0 -196 78 -196 223s93 222 196 222c56 0 89 -27 107 -55h1v279c0 29 -1 39 -9 39h-42c-7 0 -8 2 -8 5s1 5 8 5h146c7 0 8 -2 8 -5v-653c0 -29 1 -38 9 -38h42c7 0 8 -2 8 -5zM328 81
v259c0 25 -30 82 -91 82c-67 0 -83 -48 -90 -130c-4 -42 -5 -114 0 -163c7 -82 23 -130 90 -130c61 0 91 57 91 82z" />
    <glyph glyph-name="e" unicode="e" horiz-adv-x="444" 
d="M415 153c0 -74 -44 -165 -172 -165c-148 0 -219 95 -219 221c0 115 62 224 202 224c104 0 184 -60 184 -153c0 -30 -9 -39 -29 -39h-229c-3 0 -7 0 -7 -6c-1 -37 0 -79 3 -116c6 -57 29 -118 108 -118c80 0 143 55 143 147c0 10 0 16 9 16c5 0 7 -3 7 -11zM301 261
c0 27 -2 59 -7 88c-8 44 -28 74 -69 74c-60 0 -71 -56 -76 -113c-2 -16 -2 -34 -3 -51c0 -6 3 -6 6 -6h141c3 0 8 2 8 8z" />
    <glyph glyph-name="f" unicode="f" horiz-adv-x="280" 
d="M353 627c0 -32 -23 -55 -54 -55c-29 0 -54 20 -54 52c0 36 28 40 28 59c0 18 -25 25 -47 25c-43 0 -51 -29 -51 -56v-224c0 -3 2 -7 10 -7h68c9 0 10 -3 10 -6s-2 -6 -10 -6h-68c-8 0 -10 -3 -10 -6v-354c0 -29 1 -39 9 -39h52c7 0 8 -2 8 -5s-1 -5 -8 -5h-215
c-7 0 -8 2 -8 5s1 5 8 5h42c8 0 9 10 9 39v354c0 3 -2 6 -10 6h-31c-9 0 -10 3 -10 6s2 6 10 6h31c8 0 10 4 10 7v130c0 94 60 160 160 160c59 0 121 -36 121 -91z" />
    <glyph glyph-name="g" unicode="g" horiz-adv-x="484" 
d="M490 358c0 -34 -23 -50 -45 -50c-29 0 -48 22 -48 45c0 27 17 35 17 49s-12 20 -26 20c-17 0 -32 -8 -43 -20c-6 -7 -5 -9 0 -13c33 -33 48 -79 48 -129c0 -98 -56 -176 -172 -176c-35 0 -65 8 -85 16c-6 3 -12 3 -17 2c-48 -1 -59 -22 -59 -51c0 -30 17 -46 47 -46
c10 0 20 2 28 5h61c8 0 9 -2 9 -5s-1 -5 -9 -5h-20c-20 0 -26 -18 -28 -55c-3 -51 -3 -93 0 -149c2 -48 32 -71 83 -71c50 0 87 15 87 79v158c0 29 -1 38 -9 38h-38c-7 0 -8 2 -8 5s1 5 8 5h198c7 0 8 -2 8 -5s-1 -5 -8 -5h-39c-9 0 -10 -9 -10 -38v-111
c0 -64 -38 -136 -190 -136c-110 0 -199 48 -199 153c0 69 41 112 87 128v2c-6 -1 -13 -2 -20 -2c-38 0 -59 26 -59 55c0 30 20 61 76 60c-42 29 -70 77 -70 146c0 97 59 176 175 176c42 0 77 -10 105 -28c7 -4 8 -2 13 3c13 16 32 25 62 25c42 0 90 -25 90 -75zM286 189
c3 46 3 95 0 140c-5 52 -13 94 -64 94c-55 0 -64 -42 -69 -96c-4 -45 -4 -95 0 -140c5 -52 14 -93 66 -93c53 0 62 43 67 95z" />
    <glyph glyph-name="h" unicode="h" horiz-adv-x="517" 
d="M510 5c0 -3 -1 -5 -8 -5h-201c-8 0 -9 2 -9 5s1 5 9 5h39c8 0 9 10 9 39v287c0 76 -51 86 -80 86c-66 0 -94 -57 -94 -82v-291c0 -29 1 -39 9 -39h40c7 0 8 -2 8 -5s-1 -5 -8 -5h-203c-7 0 -8 2 -8 5s1 5 8 5h42c8 0 9 10 9 39v609c0 29 -1 38 -9 38h-42c-7 0 -8 2 -8 5
s1 5 8 5h146c7 0 8 -2 8 -5v-323h1c18 29 52 55 116 55c67 0 160 -39 160 -156v-228c0 -29 1 -39 9 -39h41c7 0 8 -2 8 -5z" />
    <glyph glyph-name="i" unicode="i" horiz-adv-x="249" 
d="M185 641c0 -35 -26 -60 -60 -60s-61 25 -61 60c0 34 27 61 61 61s60 -27 60 -61zM236 5c0 -3 -1 -5 -8 -5h-205c-7 0 -8 2 -8 5s1 5 8 5h42c8 0 9 10 9 39v324c0 29 -1 38 -9 38h-42c-7 0 -8 2 -8 5s1 5 8 5h146c7 0 8 -2 8 -5v-367c0 -29 1 -39 9 -39h42c7 0 8 -2 8 -5z
" />
    <glyph glyph-name="j" unicode="j" horiz-adv-x="241" 
d="M183 641c0 -35 -26 -60 -59 -60c-34 0 -62 25 -62 60c0 34 28 61 62 61c33 0 59 -27 59 -61zM175 -129c0 -92 -57 -156 -155 -156c-57 0 -117 36 -117 88c0 31 22 54 52 54c28 0 52 -19 52 -50c0 -35 -27 -39 -27 -57c0 -17 22 -24 44 -24c40 0 49 29 49 54v593
c0 29 -1 38 -10 38h-41c-8 0 -9 2 -9 5s2 5 9 5h145c7 0 8 -2 8 -5v-545z" />
    <glyph glyph-name="k" unicode="k" horiz-adv-x="468" 
d="M463 35c3 -1 4 -3 2 -8c-10 -17 -33 -39 -81 -39c-54 0 -87 29 -87 75c0 30 1 62 1 91c0 76 -38 75 -56 75h-60c-5 0 -7 -1 -7 -3v-177c0 -29 1 -39 9 -39h42c7 0 8 -2 8 -5s-1 -5 -8 -5h-205c-7 0 -8 2 -8 5s1 5 8 5h42c8 0 9 10 9 39v609c0 29 -1 38 -9 38h-42
c-7 0 -8 2 -8 5s1 5 8 5h146c7 0 8 -2 8 -5v-459c0 -2 2 -4 7 -4h37c32 0 43 14 43 47c0 28 -10 53 -10 81c0 44 35 67 78 67c37 0 78 -25 78 -67c0 -31 -23 -53 -53 -53c-29 0 -55 19 -55 49c0 24 20 34 20 44c0 8 -7 13 -14 13c-23 0 -43 -20 -43 -49c0 -30 10 -58 10 -88
c0 -17 -6 -34 -20 -44v-1c69 6 147 -35 147 -123v-79c0 -12 2 -29 20 -29c13 0 28 11 35 25c2 4 3 6 8 4z" />
    <glyph glyph-name="l" unicode="l" horiz-adv-x="249" 
d="M236 5c0 -3 -1 -5 -8 -5h-205c-7 0 -8 2 -8 5s1 5 8 5h42c8 0 9 10 9 39v609c0 29 -1 38 -9 38h-42c-7 0 -8 2 -8 5s1 5 8 5h146c7 0 8 -2 8 -5v-652c0 -29 1 -39 9 -39h42c7 0 8 -2 8 -5z" />
    <glyph glyph-name="m" unicode="m" horiz-adv-x="780" 
d="M773 5c0 -3 -1 -5 -8 -5h-202c-7 0 -8 2 -8 5s1 5 8 5h40c8 0 9 10 9 39v287c0 75 -49 86 -78 86c-61 0 -89 -56 -89 -83v-290c0 -29 1 -39 9 -39h40c7 0 8 -2 8 -5s-1 -5 -8 -5h-201c-7 0 -8 2 -8 5s1 5 8 5h40c8 0 9 10 9 39v287c0 75 -49 86 -78 86
c-59 0 -89 -55 -89 -82v-291c0 -29 1 -39 9 -39h40c7 0 8 -2 8 -5s-1 -5 -8 -5h-203c-7 0 -8 2 -8 5s1 5 8 5h42c8 0 9 10 9 39v324c0 29 -1 38 -9 38h-42c-7 0 -8 2 -8 5s1 5 8 5h143c7 0 9 -2 9 -5v-39h2c18 29 52 56 113 56c51 0 122 -26 144 -91h1c9 56 53 91 125 91
c66 0 157 -38 157 -156v-228c0 -29 1 -39 9 -39h41c7 0 8 -2 8 -5z" />
    <glyph glyph-name="n" unicode="n" horiz-adv-x="517" 
d="M511 5c0 -3 -2 -5 -9 -5h-201c-8 0 -9 2 -9 5s1 5 9 5h39c8 0 9 10 9 39v287c0 76 -51 86 -80 86c-66 0 -94 -57 -94 -82v-291c0 -29 1 -39 9 -39h40c7 0 8 -2 8 -5s-1 -5 -8 -5h-203c-7 0 -8 2 -8 5s1 5 8 5h42c8 0 9 10 9 39v324c0 29 -1 38 -9 38h-42c-7 0 -8 2 -8 5
s1 5 8 5h143c7 0 9 -2 9 -5v-39h2c18 29 53 56 117 56c67 0 160 -39 160 -156v-228c0 -29 1 -39 10 -39h40c8 0 9 -2 9 -5z" />
    <glyph glyph-name="o" unicode="o" horiz-adv-x="487" 
d="M463 212c0 -123 -79 -224 -219 -224c-135 0 -220 101 -220 221c0 123 79 224 219 224c136 0 220 -101 220 -221zM339 121c5 58 5 123 0 181c-5 56 -18 121 -96 121c-83 0 -89 -65 -94 -123c-6 -58 -6 -123 0 -181c5 -56 17 -121 95 -121c83 0 90 65 95 123z" />
    <glyph glyph-name="p" unicode="p" horiz-adv-x="503" 
d="M479 211c0 -145 -93 -223 -196 -223c-57 0 -90 28 -107 56h-1v-280c0 -29 1 -38 9 -38h52c8 0 9 -3 9 -6s-2 -5 -9 -5h-215c-7 0 -8 2 -8 5s1 6 8 6h42c8 0 9 9 9 38v609c0 29 -1 38 -9 38h-42c-7 0 -8 2 -8 5s1 5 8 5h143c7 0 9 -2 9 -5v-40h2c18 29 52 57 108 57
c103 0 196 -78 196 -222zM356 130c4 42 5 113 0 162c-7 82 -23 130 -90 130c-61 0 -91 -57 -91 -82v-259c0 -25 30 -82 91 -82c67 0 83 48 90 131z" />
    <glyph glyph-name="q" unicode="q" horiz-adv-x="497" 
d="M490 -280c0 -3 -1 -5 -8 -5h-215c-7 0 -9 2 -9 5s1 6 9 6h52c8 0 9 9 9 38v279h-1c-18 -28 -51 -55 -107 -55c-103 0 -196 77 -196 222s93 223 196 223c57 0 91 -28 108 -57h2v40c0 3 2 5 9 5h143c7 0 8 -2 8 -5s-1 -5 -8 -5h-42c-8 0 -9 -9 -9 -38v-609
c0 -29 1 -38 9 -38h42c7 0 8 -3 8 -6zM328 81v259c0 25 -30 82 -91 82c-67 0 -83 -48 -90 -130c-5 -49 -4 -121 0 -163c7 -82 23 -130 90 -130c61 0 91 57 91 82z" />
    <glyph glyph-name="r" unicode="r" horiz-adv-x="366" 
d="M361 358c0 -36 -26 -58 -58 -58c-29 0 -55 20 -55 51c0 32 26 36 26 54c0 11 -10 16 -19 16c-38 0 -80 -41 -80 -86v-286c0 -29 1 -39 9 -39h52c8 0 9 -2 9 -5s-2 -5 -9 -5h-215c-7 0 -8 2 -8 5s1 5 8 5h42c8 0 9 10 9 39v324c0 29 -1 38 -9 38h-42c-7 0 -8 2 -8 5
s1 5 8 5h143c7 0 9 -2 9 -5v-42h2c19 36 55 59 98 59c41 0 88 -26 88 -75z" />
    <glyph glyph-name="s" unicode="s" horiz-adv-x="372" 
d="M343 116c0 -61 -50 -128 -155 -128c-33 0 -74 5 -104 17c-14 6 -30 10 -30 0v-3c0 -6 -3 -9 -6 -9c-4 0 -6 1 -6 9v150c0 7 2 9 5 9c4 0 7 -1 7 -9v-15c0 -88 66 -138 127 -138c56 0 85 30 85 68c0 119 -223 97 -223 243c0 49 35 123 138 123c27 0 55 -6 82 -16
c14 -6 29 -12 29 0v3c0 6 3 8 6 8s6 0 6 -8v-134c0 -8 -2 -9 -6 -9c-3 0 -6 0 -6 9v9c0 82 -53 127 -108 127c-49 0 -67 -32 -67 -62c0 -117 226 -97 226 -244z" />
    <glyph glyph-name="t" unicode="t" horiz-adv-x="282" 
d="M268 71c0 -61 -37 -83 -92 -83c-72 0 -114 48 -114 112v302c0 3 -2 7 -10 7h-30c-9 0 -10 3 -10 6s2 6 10 6h30c8 0 10 3 10 6v92c0 6 2 10 9 13c25 11 63 33 79 57c2 3 4 6 9 6s6 -3 6 -8v-160c0 -3 2 -6 10 -6h72c9 0 10 -3 10 -6s-2 -6 -10 -6h-72c-8 0 -10 -4 -10 -7
v-338c0 -33 3 -62 39 -62c28 0 50 23 50 64c0 7 -3 15 7 15c4 0 7 -3 7 -10z" />
    <glyph glyph-name="u" unicode="u" 
d="M497 5c0 -3 -1 -5 -8 -5h-144c-7 0 -8 2 -8 5v40h-2c-19 -30 -52 -57 -113 -57c-66 0 -157 38 -157 156v228c0 29 -1 39 -9 39h-41c-7 0 -8 2 -8 5s1 5 8 5h144c8 0 9 -2 9 -5v-331c0 -75 49 -86 77 -86c60 0 90 55 90 82v291c0 29 -1 39 -10 39h-39c-7 0 -8 2 -8 5
s1 5 8 5h143c8 0 9 -2 9 -5v-368c0 -29 1 -38 9 -38h42c7 0 8 -2 8 -5z" />
    <glyph glyph-name="v" unicode="v" horiz-adv-x="444" 
d="M445 416c0 -3 -1 -5 -8 -5c-34 0 -39 -30 -51 -57c-10 -25 -20 -54 -30 -81l-101 -277c-1 -4 -3 -6 -9 -6h-39c-6 0 -8 2 -10 6l-144 376c-13 33 -17 39 -29 39h-10c-8 0 -9 2 -9 5s1 5 9 5h186c7 0 9 -2 9 -5s-1 -5 -9 -5h-30c-13 0 -19 -8 -7 -39l107 -296h2l70 193
c8 22 20 66 20 95c0 31 -15 47 -43 47h-18c-7 0 -8 2 -8 5s1 5 8 5h136c7 0 8 -2 8 -5z" />
    <glyph glyph-name="w" unicode="w" horiz-adv-x="743" 
d="M741 416c0 -3 -1 -5 -8 -5c-34 0 -40 -30 -51 -57c-10 -25 -20 -54 -30 -81l-101 -277c-2 -4 -4 -6 -9 -6h-40c-5 0 -7 2 -9 6l-123 321h-2l-116 -321c-2 -4 -4 -6 -9 -6h-40c-5 0 -7 2 -9 6l-144 376c-13 33 -17 39 -29 39h-11c-7 0 -8 2 -8 5s1 5 8 5h187
c7 0 8 -2 8 -5s-1 -5 -8 -5h-31c-12 0 -18 -8 -6 -39l107 -296h2l70 193c7 22 19 66 19 95c0 31 -14 47 -42 47h-18c-7 0 -8 2 -8 5s1 5 8 5h198c7 0 8 -2 8 -5s-1 -5 -8 -5h-31c-12 0 -18 -8 -6 -39l107 -295h2l70 192c8 22 20 66 20 95c0 31 -15 47 -44 47h-17
c-7 0 -8 2 -8 5s1 5 8 5h136c7 0 8 -2 8 -5z" />
    <glyph glyph-name="x" unicode="x" horiz-adv-x="449" 
d="M447 5c0 -3 -1 -5 -8 -5h-182c-8 0 -9 2 -9 5s1 5 9 5h24c12 0 16 9 -5 40l-92 136c-28 -37 -73 -102 -88 -129c-15 -29 -8 -47 20 -47h9c8 0 9 -2 9 -5s-2 -5 -9 -5h-115c-7 0 -8 2 -8 5s1 5 8 5c34 0 50 28 74 60c18 22 63 84 90 119c3 5 3 8 0 13l-113 171
c-22 33 -25 38 -36 38h-10c-7 0 -8 2 -8 5s1 5 8 5h184c7 0 8 -2 8 -5s-1 -5 -8 -5h-25c-11 0 -16 -9 5 -40l76 -111c24 33 56 79 69 104c16 29 9 47 -20 47h-9c-7 0 -8 2 -8 5s1 5 8 5h114c7 0 8 -2 8 -5s-1 -5 -8 -5c-34 0 -49 -28 -74 -59c-17 -22 -48 -64 -71 -95
c-3 -5 -3 -8 1 -13l129 -196c22 -33 25 -38 36 -38h9c7 0 8 -2 8 -5z" />
    <glyph glyph-name="y" unicode="y" horiz-adv-x="451" 
d="M449 416c0 -3 -1 -5 -8 -5c-32 0 -39 -27 -53 -56c-11 -25 -23 -54 -34 -82l-109 -266c-6 -14 -12 -29 -12 -40v-176c0 -49 -35 -76 -78 -76c-55 0 -108 39 -108 88c0 31 22 54 52 54c28 0 52 -19 52 -50c0 -35 -27 -39 -27 -57c0 -15 18 -24 38 -24c35 0 58 27 58 62
v179c0 10 -6 24 -13 39l-156 366c-14 32 -19 39 -31 39h-10c-7 0 -8 2 -8 5s1 5 8 5h187c7 0 9 -2 9 -5s-1 -5 -9 -5h-30c-13 0 -19 -8 -7 -39l109 -278h2l68 175c11 26 24 69 24 98c0 28 -13 44 -40 44h-17c-8 0 -9 2 -9 5s1 5 9 5h135c7 0 8 -2 8 -5z" />
    <glyph glyph-name="z" unicode="z" horiz-adv-x="422" 
d="M388 10c0 -9 -3 -10 -6 -10h-349c-4 0 -7 3 -7 7c0 3 3 9 4 11l232 391v1h-62c-108 0 -133 -63 -133 -124v-14c0 -8 -3 -9 -6 -9s-5 2 -5 9v139c0 9 4 10 7 10h311c4 0 6 -3 6 -6c0 -4 -2 -9 -3 -11l-233 -391v-2h98c91 0 135 64 135 155v15c0 8 3 9 6 9s5 -2 5 -9v-171z
" />
    <glyph glyph-name="braceleft" unicode="{" horiz-adv-x="370" 
d="M324 -279c0 -5 -4 -6 -7 -6c-155 6 -217 66 -217 142c0 89 108 180 108 260c0 60 -57 93 -129 93h-20c-7 0 -9 2 -9 6s2 7 9 7h20c72 0 129 33 129 93c0 79 -108 171 -108 260c0 76 62 136 217 142c3 0 7 -1 7 -6s-2 -6 -7 -6c-105 -2 -143 -43 -143 -113
c0 -95 49 -191 49 -262c0 -59 -31 -100 -106 -114v-1c74 -14 106 -55 106 -115c0 -70 -49 -167 -49 -261c0 -71 38 -111 143 -113c5 -1 7 -2 7 -6z" />
    <glyph glyph-name="bar" unicode="|" horiz-adv-x="255" 
d="M148 -277c0 -6 -1 -8 -8 -8s-8 2 -8 8v994c0 6 1 8 8 8s8 -2 8 -8v-994z" />
    <glyph glyph-name="braceright" unicode="}" horiz-adv-x="370" 
d="M322 217c0 -5 -2 -7 -8 -7h-20c-73 0 -129 -33 -129 -93c0 -81 105 -173 105 -260c0 -80 -70 -136 -213 -142c-3 -1 -8 0 -8 6c0 4 2 5 8 6c100 2 142 43 142 113c0 94 -50 190 -50 261c0 60 32 101 107 115v1c-74 14 -107 55 -107 114c0 71 50 167 50 262
c0 69 -42 111 -142 113c-6 0 -8 1 -8 6s5 6 8 6c143 -7 213 -62 213 -142c0 -87 -105 -181 -105 -260c0 -60 56 -93 129 -93h20c6 0 8 -2 8 -6z" />
    <glyph glyph-name="asciitilde" unicode="~" horiz-adv-x="390" 
d="M368 324c-13 -43 -35 -83 -86 -83c-58 0 -126 51 -177 51c-38 0 -52 -36 -64 -73c-3 -9 -7 -12 -13 -10c-7 2 -8 9 -6 16c13 43 35 84 86 84c59 0 119 -51 177 -51c38 0 52 35 64 72c3 9 7 12 13 10c7 -2 8 -9 6 -16z" />
    <glyph glyph-name="exclamdown" unicode="&#xa1;" horiz-adv-x="280" 
d="M198 377c0 -33 -26 -58 -58 -58s-58 25 -58 58c0 32 26 56 58 56s58 -23 58 -56zM211 -214c0 -41 -26 -79 -71 -79s-71 38 -71 79c0 145 64 300 64 436v32c0 7 1 10 6 10s7 -3 7 -10v-32c0 -136 65 -291 65 -436z" />
    <glyph glyph-name="cent" unicode="&#xa2;" horiz-adv-x="491" 
d="M473 188c0 -89 -51 -200 -188 -200c-54 0 -97 13 -130 35l-50 -108c-3 -6 -5 -8 -11 -6c-5 2 -7 7 -4 14l52 111c-81 63 -101 176 -101 255c0 140 53 304 242 304c39 0 78 -9 108 -25l51 110c3 6 7 8 12 6s6 -6 3 -13l-52 -111c34 -22 55 -53 55 -91
c0 -41 -27 -66 -64 -66c-21 0 -40 9 -52 25l-155 -331c17 -52 47 -95 109 -95c96 0 157 78 157 177c0 8 -2 21 9 21c6 0 9 -3 9 -12zM365 540c0 26 -31 43 -77 43c-98 0 -107 -77 -115 -158c-7 -77 -11 -225 10 -303l153 327c-2 5 -3 10 -3 15c0 47 32 51 32 76z" />
    <glyph glyph-name="sterling" unicode="&#xa3;" horiz-adv-x="532" 
d="M506 231c0 -136 -46 -243 -140 -243c-74 0 -113 51 -167 85c-15 -43 -45 -73 -99 -73c-35 0 -72 23 -72 61c0 44 38 61 79 61c27 0 58 -5 91 -10c2 67 -34 109 -77 161h-100c-6 0 -9 2 -9 7s3 7 9 7h88c-26 33 -47 68 -47 118c0 105 100 188 239 188
c84 0 174 -51 174 -125c0 -41 -29 -66 -66 -66c-35 0 -64 24 -64 61c0 45 32 51 32 78c0 24 -35 41 -77 41c-67 0 -104 -33 -104 -124c0 -69 6 -119 10 -171h192c7 0 9 -1 9 -6s-2 -8 -9 -8h-190c3 -50 8 -114 2 -163c54 -10 112 -23 166 -23c95 0 117 45 117 144
c0 6 0 11 7 11c6 0 6 -6 6 -11zM188 79c-27 17 -55 31 -90 31c-33 0 -58 -15 -58 -49c0 -33 30 -51 61 -51c53 0 76 34 87 69z" />
    <glyph glyph-name="fraction" unicode="&#x2044;" horiz-adv-x="255" 
d="M354 630l-437 -684c-3 -5 -7 -6 -12 -3c-5 4 -7 8 -4 12l438 683c3 5 7 6 12 3c5 -4 6 -7 3 -11z" />
    <glyph glyph-name="yen" unicode="&#xa5;" horiz-adv-x="574" 
d="M572 576c0 -3 -1 -6 -9 -6h-8c-47 0 -69 -39 -99 -89c-32 -54 -83 -147 -114 -199h173c6 0 8 -1 8 -6c0 -6 -2 -9 -8 -9h-181c-1 -2 -1 -5 -1 -8v-205c0 -32 2 -42 11 -42h45c9 0 10 -3 10 -6s-2 -6 -10 -6h-220c-8 0 -9 3 -9 6s1 6 9 6h46c9 0 10 10 10 42v200
c0 5 -1 9 -3 13h-163c-7 0 -10 2 -10 8c0 5 3 7 10 7h155l-136 239c-25 45 -33 49 -48 49h-19c-8 0 -9 3 -9 6s1 6 9 6h231c8 0 9 -3 9 -6s-1 -6 -9 -6h-46c-15 0 -16 -7 7 -50l127 -232c34 60 87 153 113 207c27 56 7 75 -30 75h-15c-8 0 -9 3 -9 6s1 6 9 6h165
c8 0 9 -3 9 -6z" />
    <glyph glyph-name="florin" unicode="&#x192;" horiz-adv-x="558" 
d="M556 493c0 -38 -27 -64 -64 -64c-35 0 -64 23 -64 60c0 42 33 46 33 69c0 15 -17 26 -41 26c-92 0 -105 -117 -110 -201c-2 -31 -4 -64 -6 -96h151c6 0 9 -2 9 -7s-3 -9 -9 -9h-152c-3 -46 -6 -93 -13 -139c-18 -121 -75 -269 -204 -269c-66 0 -118 39 -118 90
c0 31 22 55 53 55c30 0 55 -21 55 -52c0 -36 -28 -38 -28 -59c0 -16 22 -25 44 -25c88 0 84 146 87 258c2 47 4 95 7 141h-127c-6 0 -10 3 -10 8s4 8 10 8h128c1 16 3 33 5 49c19 145 101 257 230 257c63 0 134 -37 134 -100z" />
    <glyph glyph-name="section" unicode="&#xa7;" horiz-adv-x="549" 
d="M509 91c0 -159 -123 -331 -304 -331c-76 0 -150 32 -150 99c0 40 28 69 68 69c41 0 70 -30 70 -69c0 -19 -14 -36 -14 -51c0 -24 27 -31 53 -31c69 0 151 44 151 108c0 139 -342 274 -342 523c0 148 115 310 285 310c70 0 136 -30 136 -91c0 -37 -25 -63 -61 -63
c-38 0 -64 27 -64 63c0 17 12 33 12 47c0 22 -26 28 -49 28c-64 0 -141 -41 -141 -98c0 -127 350 -265 350 -513zM472 16c0 235 -368 378 -368 563c-15 -29 -28 -66 -28 -103c0 -215 365 -365 365 -568c16 31 31 68 31 108z" />
    <glyph glyph-name="currency" unicode="&#xa4;" horiz-adv-x="542" 
d="M520 114c0 -80 -88 -126 -176 -126c-174 0 -240 134 -254 252h-63c-6 0 -9 2 -9 7c0 6 3 8 9 8h61c-1 11 -1 23 -1 34c0 15 1 31 2 47h-62c-6 0 -9 3 -9 8s3 7 9 7h64c14 117 74 242 241 242c97 0 174 -48 174 -118c0 -34 -24 -57 -55 -57c-30 0 -55 21 -55 54
c0 39 28 42 28 63c0 24 -33 48 -88 48c-97 0 -108 -77 -116 -159c-2 -22 -3 -47 -4 -73h238c6 0 8 -2 8 -7s-2 -8 -8 -8h-239c-1 -27 -1 -54 -1 -81h240c6 0 8 -1 8 -7c0 -5 -2 -8 -8 -8h-239c1 -27 2 -53 4 -77c8 -87 30 -165 131 -165c29 0 86 14 86 54
c0 23 -29 27 -29 66c0 33 26 55 57 55c32 0 56 -23 56 -59z" />
    <glyph glyph-name="quotesingle" unicode="'" horiz-adv-x="255" 
d="M181 663c0 -56 -47 -95 -47 -173v-14c0 -6 -2 -9 -7 -9c-4 0 -6 3 -6 9v14c0 78 -47 115 -47 173c0 33 26 55 54 55c27 0 53 -22 53 -55z" />
    <glyph glyph-name="quotedblleft" unicode="&#x201c;" horiz-adv-x="424" 
d="M363 555c0 -33 -23 -54 -55 -54c-47 0 -76 44 -76 108c0 73 47 109 102 109c6 0 27 -2 27 -8c0 -5 -2 -8 -7 -8c-4 1 -12 3 -23 3c-50 0 -83 -36 -83 -82c0 -17 8 -34 21 -34c15 0 24 15 46 15c27 0 48 -23 48 -49zM194 555c0 -33 -23 -54 -55 -54c-47 0 -76 44 -76 108
c0 73 47 109 103 109c5 0 26 -2 26 -8c0 -5 -2 -8 -7 -8c-4 1 -12 3 -23 3c-50 0 -83 -36 -83 -82c0 -17 8 -34 21 -34c15 0 24 15 46 15c27 0 48 -23 48 -49z" />
    <glyph glyph-name="guillemotleft" unicode="&#xab;" horiz-adv-x="370" 
d="M350 61c-1 -3 -3 -6 -6 -5c-63 17 -172 63 -172 161s109 144 172 161c3 1 5 -2 6 -5c1 -4 0 -6 -5 -8c-51 -14 -72 -37 -80 -78c-3 -19 -4 -42 -4 -70s1 -51 4 -70c8 -41 29 -64 80 -78c5 -2 6 -4 5 -8zM198 61c0 -3 -3 -6 -6 -5c-62 17 -172 63 -172 161
s110 144 172 161c3 1 6 -2 6 -5c2 -4 0 -6 -5 -8c-51 -14 -72 -37 -79 -78c-4 -19 -5 -42 -5 -70s1 -51 5 -70c7 -41 28 -64 79 -78c5 -2 7 -4 5 -8z" />
    <glyph glyph-name="guilsinglleft" unicode="&#x2039;" horiz-adv-x="218" 
d="M198 61c0 -3 -3 -6 -6 -5c-62 17 -172 63 -172 161s110 144 172 161c3 1 6 -2 6 -5c2 -4 0 -6 -5 -8c-51 -14 -72 -37 -79 -78c-4 -19 -5 -42 -5 -70s1 -51 5 -70c7 -41 28 -64 79 -78c5 -2 7 -4 5 -8z" />
    <glyph glyph-name="guilsinglright" unicode="&#x203a;" horiz-adv-x="218" 
d="M198 217c0 -98 -109 -144 -172 -161c-3 -1 -5 2 -6 5c-1 4 0 6 5 8c51 14 72 37 80 78c3 19 4 42 4 70s-1 51 -4 70c-8 41 -29 64 -80 78c-5 2 -6 4 -5 8c1 3 3 6 6 5c63 -17 172 -63 172 -161z" />
    <glyph glyph-name="fi" unicode="&#xfb01;" horiz-adv-x="512" 
d="M499 5c0 -3 -1 -5 -8 -5h-204c-7 0 -8 2 -8 5s1 6 8 6h41c8 0 9 9 9 38v324c0 29 -1 36 -9 36h-143c-8 0 -10 -3 -10 -6v-354c0 -29 1 -38 9 -38h41c8 0 9 -3 9 -6s-2 -5 -9 -5h-204c-7 0 -8 2 -8 5s1 6 8 6h42c8 0 9 9 9 38v354c0 3 -2 6 -10 6h-31c-9 0 -10 3 -10 6
s2 6 10 6h31c8 0 10 4 10 7v120c0 112 95 170 199 170c63 0 161 -30 161 -97c0 -35 -26 -57 -57 -57c-32 0 -60 22 -60 56c0 32 26 37 26 58c0 16 -25 30 -74 30c-61 0 -92 -33 -92 -82v-198c0 -3 2 -7 10 -7h247c7 0 8 -2 8 -5v-367c0 -29 1 -38 10 -38h41c7 0 8 -3 8 -6z
" />
    <glyph glyph-name="fl" unicode="&#xfb02;" horiz-adv-x="512" 
d="M499 5c0 -3 -1 -5 -8 -5h-204c-7 0 -8 2 -8 5s1 6 8 6h41c8 0 9 9 9 38v523c-19 7 -34 25 -34 50c0 33 28 39 28 58c0 15 -22 28 -69 28c-60 0 -87 -34 -87 -81v-199c0 -3 2 -7 10 -7h68c9 0 10 -3 10 -6s-2 -6 -10 -6h-68c-8 0 -10 -3 -10 -6v-354c0 -29 1 -38 9 -38h41
c8 0 9 -3 9 -6s-2 -5 -9 -5h-204c-7 0 -8 2 -8 5s1 6 8 6h42c8 0 9 9 9 38v354c0 3 -2 6 -10 6h-31c-9 0 -10 3 -10 6s2 6 10 6h31c8 0 10 4 10 7v122c0 107 82 168 192 168c20 0 47 -4 71 -12h97c7 0 8 -2 8 -5v-652c0 -29 1 -38 10 -38h41c7 0 8 -3 8 -6z" />
    <glyph glyph-name="endash" unicode="&#x2013;" horiz-adv-x="500" 
d="M470 232c0 -3 -2 -6 -10 -6h-420c-8 0 -10 3 -10 6v16c0 3 2 6 10 6h420c8 0 10 -3 10 -6v-16z" />
    <glyph glyph-name="dagger" unicode="&#x2020;" horiz-adv-x="500" 
d="M449 506c0 -25 -22 -48 -51 -48c-38 0 -89 38 -144 44c0 -114 10 -189 54 -189h9c7 0 8 -2 8 -4s-1 -5 -8 -5h-9c-43 0 -52 -77 -52 -191v-113h-12v113c0 114 -8 191 -52 191h-9c-7 0 -8 3 -8 5s1 4 8 4h9c44 0 54 75 54 189c-55 -6 -106 -44 -144 -44
c-29 0 -51 23 -51 48s22 48 51 48c38 0 89 -39 144 -45c-7 55 -47 118 -47 157c0 29 25 52 51 52s51 -23 51 -52c0 -39 -40 -102 -47 -157c55 6 106 45 144 45c29 0 51 -23 51 -48z" />
    <glyph glyph-name="daggerdbl" unicode="&#x2021;" horiz-adv-x="500" 
d="M449 189c0 -25 -22 -48 -51 -48c-38 0 -89 39 -144 46c7 -56 47 -107 47 -146c0 -30 -25 -53 -51 -53s-51 23 -51 53c0 39 40 90 47 146c-55 -7 -106 -46 -144 -46c-29 0 -51 23 -51 48s22 49 51 49c38 0 89 -38 144 -45c0 111 -10 156 -54 156h-9c-7 0 -8 3 -8 5
s1 4 8 4h9c44 0 54 44 54 155c-55 -6 -106 -44 -144 -44c-29 0 -51 23 -51 48s22 48 51 48c38 0 89 -39 144 -45c-7 55 -47 107 -47 146c0 29 25 52 51 52s51 -23 51 -52c0 -39 -40 -91 -47 -146c55 6 106 45 144 45c29 0 51 -23 51 -48s-22 -48 -51 -48
c-38 0 -89 38 -144 44c0 -111 10 -155 54 -155h9c7 0 8 -2 8 -4s-1 -5 -8 -5h-9c-43 0 -54 -45 -54 -156c55 7 106 45 144 45c29 0 51 -24 51 -49z" />
    <glyph glyph-name="periodcentered" unicode="&#xb7;" horiz-adv-x="255" 
d="M189 273c0 -35 -28 -60 -61 -60c-34 0 -61 25 -61 60c0 34 27 59 61 59c33 0 61 -25 61 -59z" />
    <glyph glyph-name="paragraph" unicode="&#xb6;" horiz-adv-x="515" 
d="M504 700c0 -3 -1 -5 -9 -5h-75c-9 0 -10 -11 -10 -43v-682c0 -114 -56 -210 -177 -210c-67 0 -145 41 -145 105c0 35 23 62 56 62c24 0 58 -14 58 -56c0 -41 -35 -46 -35 -66c0 -13 27 -33 66 -33c85 0 141 54 141 138v369h-110c-120 0 -226 68 -226 213
c0 138 90 214 232 214h225c8 0 9 -3 9 -6z" />
    <glyph glyph-name="bullet" unicode="&#x2022;" horiz-adv-x="336" 
d="M296 291c0 -75 -62 -130 -127 -130c-66 0 -129 55 -129 130c0 76 63 130 129 130s127 -54 127 -130z" />
    <glyph glyph-name="quotesinglbase" unicode="&#x201a;" horiz-adv-x="255" 
d="M193 1c0 -74 -48 -109 -103 -109c-6 0 -26 1 -26 8c0 4 2 7 6 7s13 -3 23 -3c50 0 83 37 83 82c0 17 -7 35 -21 35c-15 0 -23 -15 -45 -15c-27 0 -49 22 -49 49c0 33 23 54 56 54c46 0 76 -44 76 -108z" />
    <glyph glyph-name="quotedblbase" unicode="&#x201e;" horiz-adv-x="424" 
d="M362 1c0 -74 -48 -109 -103 -109c-6 0 -27 1 -27 8c0 4 3 7 7 7s13 -3 23 -3c50 0 83 37 83 82c0 17 -8 35 -21 35c-15 0 -23 -15 -45 -15c-28 0 -49 22 -49 49c0 33 23 54 56 54c46 0 76 -44 76 -108zM193 1c0 -74 -48 -109 -103 -109c-6 0 -26 1 -26 8c0 4 2 7 6 7
s13 -3 23 -3c50 0 83 37 83 82c0 17 -7 35 -21 35c-15 0 -23 -15 -45 -15c-27 0 -49 22 -49 49c0 33 23 54 56 54c46 0 76 -44 76 -108z" />
    <glyph glyph-name="quotedblright" unicode="&#x201d;" horiz-adv-x="424" 
d="M362 610c0 -74 -48 -109 -103 -109c-6 0 -27 1 -27 8c0 4 3 7 7 7s13 -3 23 -3c50 0 83 37 83 82c0 17 -8 35 -21 35c-15 0 -23 -15 -45 -15c-28 0 -49 22 -49 49c0 33 23 54 56 54c46 0 76 -45 76 -108zM193 610c0 -74 -48 -109 -103 -109c-6 0 -26 1 -26 8c0 4 2 7 6 7
s13 -3 23 -3c50 0 83 37 83 82c0 17 -7 35 -21 35c-15 0 -23 -15 -45 -15c-27 0 -49 22 -49 49c0 33 23 54 56 54c46 0 76 -45 76 -108z" />
    <glyph glyph-name="guillemotright" unicode="&#xbb;" horiz-adv-x="370" 
d="M350 217c0 -98 -110 -144 -172 -161c-3 -1 -5 2 -6 5c-2 4 0 6 5 8c51 14 72 37 79 78c4 19 5 42 5 70s-1 51 -5 70c-7 41 -28 64 -79 78c-5 2 -7 4 -5 8c1 3 3 6 6 5c62 -17 172 -63 172 -161zM198 217c0 -98 -109 -144 -172 -161c-3 -1 -5 2 -6 5c-1 4 0 6 5 8
c51 14 72 37 80 78c3 19 4 42 4 70s-1 51 -4 70c-8 41 -29 64 -80 78c-5 2 -6 4 -5 8c1 3 3 6 6 5c63 -17 172 -63 172 -161z" />
    <glyph glyph-name="ellipsis" unicode="&#x2026;" horiz-adv-x="1000" 
d="M892 52c0 -35 -27 -60 -61 -60c-33 0 -61 25 -61 60s28 60 61 60c34 0 61 -25 61 -60zM540 52c0 -35 -27 -60 -61 -60c-33 0 -61 25 -61 60s28 60 61 60c34 0 61 -25 61 -60zM189 52c0 -35 -28 -60 -61 -60c-34 0 -61 25 -61 60s27 60 61 60c33 0 61 -25 61 -60z" />
    <glyph glyph-name="perthousand" unicode="&#x2030;" horiz-adv-x="1203" 
d="M1185 206c0 -120 -60 -215 -167 -215c-102 0 -168 94 -168 212c0 121 60 214 167 214c103 0 168 -93 168 -211zM800 206c0 -120 -60 -215 -167 -215c-103 0 -168 94 -168 212c0 121 60 214 167 214c103 0 168 -93 168 -211zM633 628l-437 -684c-3 -4 -6 -6 -12 -2
c-5 3 -6 7 -3 11l438 683c3 4 6 6 12 3c5 -4 5 -7 2 -11zM353 381c0 -120 -60 -213 -167 -213c-103 0 -168 92 -168 210c0 120 60 215 167 215c102 0 168 -94 168 -212zM1087 121c4 56 4 115 0 171c-3 46 -6 115 -68 115c-69 0 -69 -69 -72 -119c-4 -56 -4 -114 0 -170
c3 -47 9 -117 70 -117c68 0 67 70 70 120zM702 121c4 56 4 115 0 171c-3 46 -6 115 -68 115c-69 0 -69 -69 -73 -119c-3 -56 -4 -114 0 -170c4 -47 10 -117 71 -117c68 0 67 70 70 120zM256 296c4 56 4 115 0 171c-3 46 -9 117 -70 117c-68 0 -67 -71 -70 -120
c-4 -56 -4 -116 0 -172c3 -45 6 -115 68 -115c69 0 69 70 72 119z" />
    <glyph glyph-name="questiondown" unicode="&#xbf;" horiz-adv-x="453" 
d="M355 377c0 -33 -26 -58 -58 -58s-58 25 -58 58c0 32 26 56 58 56s58 -23 58 -56zM20 -80c0 113 86 206 203 206c29 0 51 -4 67 -8v136c0 7 1 10 7 10c5 0 7 -3 7 -10v-132c0 -7 2 -10 8 -13c17 -10 24 -20 24 -27c0 -15 -16 -27 -32 -27c-12 0 -19 9 -19 24
c0 5 2 16 3 21c-13 8 -34 14 -61 14c-61 0 -83 -40 -85 -127c-2 -52 -2 -90 1 -142c5 -90 27 -126 89 -126c42 0 77 19 77 43c0 22 -30 25 -30 66c0 32 25 57 57 57c34 0 58 -26 58 -60c0 -67 -81 -118 -166 -118c-106 0 -208 69 -208 213z" />
    <glyph glyph-name="grave" unicode="`" 
d="M332 485c-3 -2 -6 2 -8 5l-99 121c-15 18 -47 49 -47 72c0 19 17 35 36 35c32 0 46 -54 57 -79l61 -143c2 -4 3 -9 0 -11z" />
    <glyph glyph-name="acute" unicode="&#xb4;" 
d="M332 683c0 -23 -31 -54 -46 -72l-99 -121c-2 -3 -6 -7 -9 -5s-1 7 1 11l61 143c10 25 24 79 57 79c19 0 35 -16 35 -35z" />
    <glyph glyph-name="circumflex" unicode="&#x2c6;" 
d="M375 485c-3 -2 -7 2 -9 5l-110 148h-1l-110 -148c-2 -3 -6 -7 -9 -5s-1 7 0 11l61 143c21 50 30 79 58 79c29 0 37 -29 58 -79l62 -143c1 -4 3 -9 0 -11z" />
    <glyph glyph-name="tilde" unicode="&#x2dc;" 
d="M400 710c-14 -92 -44 -114 -84 -114c-36 0 -120 25 -154 25c-20 0 -37 -7 -49 -53c-1 -5 -1 -10 -7 -9c-4 1 -4 3 -3 8c13 92 43 114 84 114c36 0 120 -24 153 -24c21 0 38 6 49 52c2 5 2 11 8 9c3 0 4 -3 3 -8z" />
    <glyph glyph-name="macron" unicode="&#xaf;" 
d="M390 630c0 -3 -2 -6 -10 -6h-250c-8 0 -10 3 -10 6v55c0 3 2 6 10 6h250c8 0 10 -3 10 -6v-55zM390 630v55c0 3 -2 6 -10 6h-250c-8 0 -10 -3 -10 -6v-55c0 -3 2 -6 10 -6h250c8 0 10 3 10 6zM390 630c0 -3 -2 -6 -10 -6h-250c-8 0 -10 3 -10 6v55c0 3 2 6 10 6h250
c8 0 10 -3 10 -6v-55z" />
    <glyph glyph-name="breve" unicode="&#x2d8;" 
d="M413 721c-15 -96 -48 -160 -132 -160s-117 64 -133 160c0 5 0 7 4 8c6 2 6 -3 7 -9c14 -66 48 -91 122 -91c73 0 108 25 122 91c1 6 1 11 7 9c3 -1 4 -3 3 -8z" />
    <glyph glyph-name="dotaccent" unicode="&#x2d9;" 
d="M316 641c0 -34 -27 -60 -60 -60c-34 0 -61 26 -61 60s27 61 61 61c33 0 60 -27 60 -61z" />
    <glyph glyph-name="dieresis" unicode="&#xa8;" 
d="M387 646c0 -32 -23 -56 -53 -56c-29 0 -54 24 -54 56c0 31 25 56 54 56c30 0 53 -25 53 -56zM230 646c0 -32 -23 -56 -53 -56c-29 0 -54 24 -54 56c0 31 25 56 54 56c30 0 53 -25 53 -56z" />
    <glyph glyph-name="ring" unicode="&#x2da;" 
d="M367 613c0 -58 -38 -106 -111 -106c-69 0 -112 47 -112 105s38 106 111 106c70 0 112 -48 112 -105zM305 572c3 26 3 56 0 81c-2 25 -9 56 -49 56c-43 0 -47 -31 -50 -57c-2 -26 -2 -55 0 -81c3 -24 10 -54 50 -54c43 0 47 29 49 55z" />
    <glyph glyph-name="cedilla" unicode="&#xb8;" 
d="M346 -145c0 -58 -48 -89 -100 -89c-31 0 -59 13 -80 34c-4 5 -6 8 -2 12c4 3 7 2 10 -1c15 -16 36 -30 63 -30c35 0 49 24 49 73c0 43 -14 68 -43 68c-12 0 -23 -6 -32 -11c-4 -2 -7 -3 -10 1l-3 4c-2 3 -3 5 0 8l57 72h16l-58 -71l1 -1c18 10 31 12 48 12
c45 0 84 -32 84 -81z" />
    <glyph glyph-name="hungarumlaut" unicode="&#x2dd;" 
d="M268 683c0 -23 -32 -54 -46 -72l-99 -121c-3 -3 -6 -7 -9 -5s-2 7 0 11l61 143c11 25 25 79 58 79c19 0 35 -16 35 -35zM397 683c0 -23 -32 -54 -47 -72l-99 -121c-2 -3 -5 -7 -8 -5s-2 7 0 11l61 143c11 25 24 79 57 79c19 0 36 -16 36 -35z" />
    <glyph glyph-name="ogonek" unicode="&#x2db;" 
d="M374 -189c3 -4 1 -7 -3 -11c-20 -20 -48 -34 -80 -34c-65 0 -102 36 -102 88c0 61 58 100 153 142h18c-79 -42 -111 -63 -111 -141c0 -53 21 -74 54 -74c28 0 48 17 62 30c3 3 6 3 9 0z" />
    <glyph glyph-name="caron" unicode="&#x2c7;" 
d="M375 707l-62 -143c-21 -50 -29 -79 -58 -79c-28 0 -37 29 -58 79l-61 143c-1 4 -3 9 0 11s7 -2 9 -5l110 -148h1l110 148c2 3 6 7 9 5s1 -7 0 -11z" />
    <glyph glyph-name="emdash" unicode="&#x2014;" horiz-adv-x="1000" 
d="M970 232c0 -3 -2 -6 -10 -6h-920c-8 0 -10 3 -10 6v16c0 3 2 6 10 6h920c8 0 10 -3 10 -6v-16z" />
    <glyph glyph-name="AE" unicode="&#xc6;" horiz-adv-x="934" 
d="M886 7c0 -4 -2 -7 -9 -7h-482c-8 0 -9 3 -9 6s1 6 9 6h46c9 0 10 10 10 42v301c0 3 -2 6 -10 6h-170c-8 0 -8 -3 -10 -6l-90 -159c-39 -68 -73 -184 6 -184h31c8 0 9 -3 9 -6s-1 -6 -9 -6h-201c-8 0 -9 3 -9 6s1 6 9 6h3c35 0 56 33 145 189l257 451c19 34 -1 42 -14 42
h-59c-9 0 -10 3 -10 6s2 6 10 6h505c8 0 9 -4 9 -8v-215c0 -7 -4 -8 -7 -8s-6 0 -6 8v11c0 106 -54 200 -158 200h-101c-7 0 -10 -3 -10 -6v-310c0 -3 2 -5 9 -5h60c56 0 102 43 102 100v8c0 8 4 9 7 9c4 0 6 -2 6 -9v-228c0 -7 -2 -9 -6 -9c-3 0 -7 1 -7 9v7
c0 59 -46 101 -102 101h-59c-7 0 -10 -2 -10 -5v-338c0 -3 2 -6 9 -6h94c155 0 199 136 199 208v9c0 8 3 9 6 9s7 -2 7 -9v-222zM451 381v305h-2l-175 -307c-2 -4 1 -6 10 -6h157c8 0 10 5 10 8z" />
    <glyph glyph-name="ordfeminine" unicode="&#xaa;" horiz-adv-x="418" 
d="M387 314c3 -2 4 -3 2 -7c-8 -13 -28 -28 -61 -28s-55 14 -59 39h-1c-19 -29 -45 -39 -86 -39c-60 0 -94 33 -94 78c0 46 28 67 67 76c31 8 59 15 87 25c14 5 24 10 24 24v45c0 50 -23 56 -52 56c-44 0 -54 -14 -54 -23c0 -13 21 -15 21 -40c0 -21 -18 -34 -38 -34
s-39 13 -39 38c0 41 54 69 111 69c74 0 127 -35 127 -101v-179c0 -11 3 -19 13 -19c13 0 22 9 26 19c1 3 3 2 6 1zM266 345v113c-69 -27 -93 -31 -95 -83c-1 -13 -1 -35 1 -49c1 -16 7 -35 36 -35c31 0 58 29 58 54z" />
    <glyph glyph-name="Lslash" unicode="&#x141;" horiz-adv-x="573" 
d="M533 7c0 -4 -1 -7 -8 -7h-484c-8 0 -9 3 -9 6s1 6 9 6h45c10 0 11 10 11 42v291c0 6 -2 10 -10 7l-69 -26c-6 -2 -10 0 -12 4c-2 5 0 8 7 10l74 28c7 3 10 6 10 10v274c0 32 -1 42 -11 42h-45c-8 0 -9 3 -9 6s1 6 9 6h251c8 0 9 -3 9 -6s-1 -6 -9 -6h-65
c-9 0 -10 -10 -10 -42v-226c0 -6 2 -10 10 -7l144 52c7 2 8 1 10 -3c2 -5 2 -10 -4 -12l-150 -54c-8 -3 -10 -6 -10 -10v-374c0 -3 2 -6 9 -6h95c154 0 199 141 199 228v25c0 9 3 10 6 10s7 -2 7 -10v-258z" />
    <glyph glyph-name="Oslash" unicode="&#xd8;" horiz-adv-x="657" 
d="M621 356c0 -202 -95 -368 -295 -368c-76 0 -139 25 -187 68l-75 -111c-5 -7 -8 -9 -13 -5c-5 3 -7 9 -2 15l78 114c-65 67 -98 168 -98 281c0 202 94 368 294 368c77 0 141 -26 189 -71l73 108c5 7 10 8 15 5c5 -4 5 -9 1 -16l-76 -110c63 -67 96 -167 96 -278zM458 578
c-2 8 -3 16 -6 24c-19 59 -57 106 -124 106c-155 0 -143 -141 -149 -211c-9 -107 -8 -245 8 -350zM470 209c10 116 6 262 -7 344l-271 -430c1 -6 3 -13 5 -19c20 -58 57 -106 124 -106c154 0 143 141 149 211z" />
    <glyph glyph-name="OE" unicode="&#x152;" horiz-adv-x="929" 
d="M881 7c0 -4 -1 -7 -9 -7h-455c-27 -8 -55 -12 -87 -12c-192 0 -297 165 -297 362c0 202 95 368 294 368c31 0 59 -4 86 -12h427c7 0 8 -4 8 -8v-215c0 -7 -4 -8 -7 -8s-6 0 -6 8v11c0 106 -54 200 -158 200h-203c-7 0 -10 -2 -10 -6s4 -7 9 -10c93 -57 145 -172 150 -303
c63 3 115 28 115 100v8c0 8 4 9 7 9s5 -2 5 -9v-228c0 -7 -2 -9 -5 -9s-7 1 -7 9v7c0 73 -51 98 -115 101c0 -123 -33 -265 -144 -334c-5 -3 -11 -7 -11 -12c0 -4 3 -5 10 -5h192c155 0 198 136 198 208v9c0 8 3 9 6 9s7 -2 7 -9v-222zM474 209c8 97 8 198 0 295
c-5 63 -7 202 -142 202c-154 0 -144 -139 -149 -209c-8 -97 -7 -197 0 -294c5 -63 7 -203 142 -203c154 0 144 139 149 209z" />
    <glyph glyph-name="ordmasculine" unicode="&#xba;" horiz-adv-x="470" 
d="M375 437c0 -87 -57 -158 -159 -158c-98 0 -160 72 -160 156c0 87 57 158 159 158c98 0 160 -72 160 -156zM284 374c4 40 4 86 0 126c-4 38 -13 83 -69 83c-59 0 -63 -44 -67 -85c-4 -40 -4 -86 0 -126c4 -39 12 -83 68 -83c59 0 64 45 68 85z" />
    <glyph glyph-name="ae" unicode="&#xe6;" horiz-adv-x="679" 
d="M650 153c0 -74 -44 -165 -173 -165c-98 0 -162 43 -193 103v-6c0 -43 -29 -97 -128 -97c-82 0 -130 46 -130 109c0 65 38 96 91 108c29 7 77 19 104 29c37 12 52 19 52 43v63c0 72 -33 83 -73 83c-61 0 -76 -20 -76 -35c0 -21 29 -22 29 -57c0 -30 -24 -47 -52 -47
c-30 0 -52 21 -52 51c0 58 74 98 152 98c55 0 102 -15 132 -45c31 29 73 45 127 45c104 0 185 -60 185 -153c0 -30 -9 -39 -30 -39h-229c-3 0 -7 0 -7 -6c-1 -37 0 -77 4 -114c5 -58 28 -119 107 -119c80 0 144 54 144 146c0 10 -1 16 9 16c4 0 7 -3 7 -11zM535 261
c0 27 -2 58 -7 87c-8 44 -28 74 -69 74c-60 0 -71 -56 -76 -113c-1 -16 -2 -33 -3 -50c0 -6 3 -6 6 -6h141c3 0 8 2 8 8zM273 83v161c-88 -37 -130 -43 -134 -120c-1 -22 -1 -51 1 -70c2 -23 10 -51 51 -51c50 0 82 40 82 80z" />
    <glyph glyph-name="dotlessi" unicode="&#x131;" horiz-adv-x="249" 
d="M234 5c0 -3 -1 -5 -8 -5h-205c-7 0 -8 2 -8 5s1 6 8 6h42c8 0 9 9 9 38v324c0 29 -1 38 -9 38h-42c-7 0 -8 2 -8 5s1 5 8 5h146c7 0 8 -2 8 -5v-367c0 -29 1 -38 9 -38h42c7 0 8 -3 8 -6z" />
    <glyph glyph-name="lslash" unicode="&#x142;" horiz-adv-x="248" 
d="M251 423c2 -4 0 -8 -6 -10l-60 -21c-8 -3 -10 -6 -10 -10v-333c0 -29 1 -38 9 -38h42c7 0 8 -3 8 -6s-1 -5 -8 -5h-205c-7 0 -8 2 -8 5s1 6 8 6h42c8 0 9 9 9 38v290c0 6 -2 10 -10 7l-45 -16c-6 -2 -10 -1 -12 4c-2 4 1 8 6 10l51 19c8 2 10 6 10 10v285
c0 29 -1 38 -9 38h-42c-7 0 -8 2 -8 5s1 5 8 5h146c7 0 8 -2 8 -5v-286c0 -6 2 -10 10 -7l55 19c7 2 9 1 11 -4z" />
    <glyph glyph-name="oslash" unicode="&#xf8;" horiz-adv-x="487" 
d="M466 212c0 -123 -79 -224 -219 -224c-51 0 -96 15 -131 40l-57 -79c-5 -6 -8 -8 -12 -5c-4 4 -5 9 -1 15l58 79c-49 41 -77 103 -77 171c0 123 79 224 219 224c47 0 88 -12 122 -33l63 87c5 6 10 7 14 4c4 -4 4 -10 0 -16l-63 -85c54 -41 84 -106 84 -178zM332 353
c-1 4 -2 9 -4 13c-15 39 -42 57 -82 57c-82 0 -96 -57 -98 -192c0 -44 2 -89 7 -128zM345 191c1 49 -1 102 -8 142l-177 -251c0 -4 0 -9 1 -13c13 -44 39 -71 86 -71c90 0 97 72 98 193z" />
    <glyph glyph-name="oe" unicode="&#x153;" horiz-adv-x="756" 
d="M727 153c0 -74 -44 -165 -172 -165c-71 0 -124 23 -158 61c-36 -38 -87 -61 -153 -61c-135 0 -220 101 -220 221c0 123 79 224 219 224c64 0 115 -23 152 -61c32 37 79 61 143 61c104 0 184 -60 184 -153c0 -30 -9 -39 -29 -39h-229c-3 0 -7 0 -7 -6c-1 -37 0 -77 3 -114
c5 -58 29 -119 108 -119c80 0 143 54 143 146c0 10 0 16 9 16c4 0 7 -3 7 -11zM612 261c0 27 -1 58 -7 87c-7 44 -28 74 -68 74c-60 0 -71 -56 -77 -113c-1 -16 -2 -33 -2 -50c0 -6 3 -6 6 -6h140c3 0 8 2 8 8zM339 122c5 58 5 122 0 180c-5 55 -18 120 -96 120
c-83 0 -89 -65 -94 -123c-6 -58 -6 -122 0 -180c5 -55 17 -120 95 -120c83 0 90 65 95 123z" />
    <glyph glyph-name="germandbls" unicode="&#xdf;" horiz-adv-x="546" 
d="M528 116c0 -76 -71 -128 -168 -128c-91 0 -138 47 -138 85c0 28 21 50 49 50c27 0 50 -19 50 -46c0 -32 -22 -34 -22 -52c0 -15 26 -26 60 -26c46 0 92 19 92 68c0 116 -219 113 -219 248c0 114 166 136 166 265c0 94 -74 126 -140 126c-54 0 -86 -21 -86 -72v-629
c0 -3 -2 -5 -9 -5h-145c-7 0 -8 2 -8 5s1 6 8 6h41c9 0 10 9 10 38v499c0 106 101 170 189 170c85 0 157 -49 157 -138c0 -100 -110 -133 -110 -207c0 -122 223 -110 223 -257z" />
    <glyph glyph-name="eth" unicode="&#xf0;" horiz-adv-x="488" 
d="M464 272c0 -165 -67 -284 -220 -284c-136 0 -220 101 -220 221c0 123 79 224 219 224c38 0 77 -15 92 -58h1c0 57 -11 141 -40 207c-3 6 -6 7 -11 4l-81 -48c-5 -3 -10 -3 -13 1c-2 4 -1 8 5 11l82 50c6 3 7 6 3 13c-28 52 -69 90 -131 90c-27 0 -47 -7 -61 -14
c-7 -4 -12 -6 -15 2c-2 4 1 7 6 9c20 9 43 18 78 18c62 0 124 -26 175 -74c5 -5 8 -7 13 -4l83 50c5 3 10 2 12 -2c2 -5 1 -8 -4 -11l-78 -47c-6 -3 -6 -5 -3 -9c64 -76 108 -192 108 -349zM339 121c5 58 6 123 0 181c-7 66 -23 120 -96 120c-83 0 -89 -64 -95 -122
c-5 -58 -5 -123 0 -181c6 -56 18 -121 96 -121c83 0 89 65 95 123z" />
    <glyph glyph-name="Scaron" unicode="&#x160;" horiz-adv-x="528" 
d="M496 195c0 -111 -93 -207 -236 -207c-61 0 -108 15 -146 28c-30 11 -52 18 -52 -2v-6c0 -9 -4 -10 -7 -10s-7 2 -7 10v253c0 8 4 9 7 9s7 0 7 -9v-10c0 -100 53 -252 199 -252c93 0 141 50 141 123c0 199 -350 165 -350 396c0 100 72 201 203 201c44 0 82 -13 119 -27
c20 -8 44 -20 44 0v7c0 9 4 10 7 10s7 -2 7 -10v-220c0 -7 -4 -9 -7 -9s-7 1 -7 9v9c0 134 -68 219 -171 219c-65 0 -108 -40 -108 -111c0 -204 357 -165 357 -401zM374 987l-62 -143c-21 -50 -29 -79 -58 -79c-28 0 -37 29 -58 79l-61 143c-1 4 -3 9 0 11s7 -2 9 -5
l110 -148h1l110 148c2 3 6 7 9 5s1 -7 0 -11z" />
    <glyph glyph-name="scaron" unicode="&#x161;" horiz-adv-x="372" 
d="M343 116c0 -61 -50 -128 -155 -128c-33 0 -74 5 -104 17c-14 6 -30 10 -30 0v-3c0 -6 -3 -9 -6 -9c-4 0 -6 1 -6 9v150c0 7 2 9 5 9c4 0 7 -1 7 -9v-15c0 -88 66 -138 127 -138c56 0 85 30 85 68c0 119 -223 97 -223 243c0 49 35 123 138 123c27 0 55 -6 82 -16
c14 -6 29 -12 29 0v3c0 6 3 8 6 8s6 0 6 -8v-134c0 -8 -2 -9 -6 -9c-3 0 -6 0 -6 9v9c0 82 -53 127 -108 127c-49 0 -67 -32 -67 -62c0 -117 226 -97 226 -244zM304 707l-62 -143c-21 -50 -29 -79 -58 -79c-28 0 -37 29 -58 79l-61 143c-1 4 -3 9 0 11s7 -2 9 -5l110 -148h1
l110 148c2 3 6 7 9 5s1 -7 0 -11z" />
    <glyph glyph-name="Yacute" unicode="&#xdd;" horiz-adv-x="661" 
d="M659 700c0 -3 -1 -6 -9 -6h-3c-57 0 -82 -48 -118 -104c-41 -64 -112 -178 -145 -233c-5 -8 -4 -9 -4 -19v-284c0 -32 1 -42 10 -42h46c8 0 9 -3 9 -6s-1 -6 -9 -6h-232c-8 0 -10 3 -10 6s1 6 10 6h45c9 0 11 10 11 42v276c0 6 -2 11 -6 18l-172 287
c-32 53 -41 59 -58 59h-13c-8 0 -9 3 -9 6s1 6 9 6h249c8 0 9 -3 9 -6s-1 -6 -9 -6h-47c-18 0 -21 -11 9 -61l156 -262c42 68 113 189 141 244c24 46 10 79 -40 79h-18c-8 0 -9 3 -9 6s1 6 9 6h189c8 0 9 -3 9 -6zM519 926c0 -23 -31 -54 -46 -72l-99 -121
c-2 -3 -6 -7 -9 -5s-1 7 1 11l61 143c10 25 24 79 57 79c19 0 35 -16 35 -35z" />
    <glyph glyph-name="yacute" unicode="&#xfd;" horiz-adv-x="451" 
d="M449 416c0 -3 -1 -5 -8 -5c-32 0 -39 -27 -53 -56c-11 -25 -23 -54 -34 -82l-109 -266c-6 -14 -12 -29 -12 -40v-176c0 -49 -35 -76 -78 -76c-55 0 -108 39 -108 88c0 31 22 54 52 54c28 0 52 -19 52 -50c0 -35 -27 -39 -27 -57c0 -15 18 -24 38 -24c35 0 58 27 58 62
v179c0 10 -6 24 -13 39l-156 366c-14 32 -19 39 -31 39h-10c-7 0 -8 2 -8 5s1 5 8 5h187c7 0 9 -2 9 -5s-1 -5 -9 -5h-30c-13 0 -19 -8 -7 -39l109 -278h2l68 175c11 26 24 69 24 98c0 28 -13 44 -40 44h-17c-8 0 -9 2 -9 5s1 5 9 5h135c7 0 8 -2 8 -5zM390 683
c0 -23 -31 -54 -46 -72l-99 -121c-2 -3 -6 -7 -9 -5s-1 7 1 11l61 143c10 25 24 79 57 79c19 0 35 -16 35 -35z" />
    <glyph glyph-name="Thorn" unicode="&#xde;" horiz-adv-x="594" 
d="M555 441c0 -141 -110 -198 -215 -198h-113c-7 0 -10 -5 -10 -8v-181c0 -32 1 -42 10 -42h65c8 0 9 -3 9 -6s-1 -6 -9 -6h-251c-8 0 -9 3 -9 6s1 6 9 6h45c10 0 11 10 11 42v598c0 32 -1 42 -11 42h-45c-8 0 -9 3 -9 6s1 6 9 6h232c8 0 9 -3 9 -6s-1 -6 -9 -6h-46
c-9 0 -10 -10 -10 -42v-8c0 -3 2 -6 9 -6h110c105 0 219 -52 219 -197zM423 442c0 136 -36 184 -104 184h-92c-7 0 -10 -3 -10 -6v-359c0 -3 2 -6 9 -6h94c67 0 103 44 103 187z" />
    <glyph glyph-name="thorn" unicode="&#xfe;" horiz-adv-x="503" 
d="M479 211c0 -145 -91 -223 -196 -223c-57 0 -89 27 -107 56h-1v-280c0 -29 1 -38 9 -38h52c8 0 9 -3 9 -6s-2 -5 -9 -5h-215c-7 0 -8 2 -8 5s1 6 8 6h42c8 0 9 9 9 38v893c0 29 -1 39 -9 39h-42c-7 0 -8 2 -8 5s1 5 8 5h146c7 0 8 -2 8 -5v-324h1c18 29 50 56 107 56
c103 0 196 -78 196 -222zM356 130c4 42 5 113 0 162c-7 82 -23 130 -90 130c-61 0 -91 -57 -91 -82v-260c0 -24 30 -81 91 -81c68 0 83 48 90 131z" />
    <glyph glyph-name="Zcaron" unicode="&#x17d;" horiz-adv-x="582" 
d="M534 8c0 -4 -2 -8 -9 -8h-482c-4 0 -6 1 -6 5c0 3 1 8 3 11l355 676v2h-138c-113 0 -166 -99 -166 -208v-21c0 -8 -3 -8 -6 -8s-7 1 -7 8v233c0 4 1 8 9 8h438c4 0 6 -1 6 -5c0 -3 -3 -8 -4 -11l-352 -675v-3h155c124 0 190 132 190 234v30c0 8 3 8 7 8c3 0 7 -1 7 -8
v-268zM409 987l-62 -143c-21 -50 -29 -79 -58 -79c-28 0 -37 29 -58 79l-61 143c-1 4 -3 9 0 11s7 -2 9 -5l110 -148h1l110 148c2 3 6 7 9 5s1 -7 0 -11z" />
    <glyph glyph-name="zcaron" unicode="&#x17e;" horiz-adv-x="422" 
d="M388 10c0 -9 -3 -10 -6 -10h-349c-4 0 -7 3 -7 7c0 3 3 9 4 11l232 391v1h-62c-108 0 -133 -63 -133 -124v-14c0 -8 -3 -9 -6 -9s-5 2 -5 9v139c0 9 4 10 7 10h311c4 0 6 -3 6 -6c0 -4 -2 -9 -3 -11l-233 -391v-2h98c91 0 135 64 135 155v15c0 8 3 9 6 9s5 -2 5 -9v-171z
M335 707l-62 -143c-21 -50 -29 -79 -58 -79c-28 0 -37 29 -58 79l-61 143c-1 4 -3 9 0 11s7 -2 9 -5l110 -148h1l110 148c2 3 6 7 9 5s1 -7 0 -11z" />
    <glyph glyph-name="onehalf" unicode="&#xbd;" horiz-adv-x="757" 
d="M729 8c0 -4 -3 -8 -7 -8h-295c-4 0 -5 4 -5 6s0 5 2 6c156 98 189 150 189 283c0 99 -29 113 -69 113c-34 0 -55 -12 -55 -29c0 -15 22 -20 22 -49c0 -25 -21 -41 -44 -41c-25 0 -43 17 -43 44c0 51 62 84 126 84c54 0 155 -17 155 -121c0 -84 -63 -140 -188 -232v-1h178
c16 0 24 5 24 26v17c0 6 2 7 5 7s5 -1 5 -6v-99zM566 633l-437 -684c-3 -4 -6 -6 -12 -2c-5 3 -6 7 -3 11l438 683c3 4 6 6 12 3c5 -4 5 -7 2 -11zM219 178c0 -3 -1 -6 -7 -6h-160c-6 0 -8 3 -8 6s1 5 8 5h42c5 0 6 5 6 28v303h-1c-10 -46 -39 -99 -64 -131
c-3 -5 -7 -6 -12 -3c-4 4 -2 9 1 12c17 20 76 105 76 184c0 3 3 6 8 6h64c6 0 7 -2 7 -5v-366c0 -23 1 -28 7 -28h26c6 0 7 -2 7 -5z" />
    <glyph glyph-name="onequarter" unicode="&#xbc;" horiz-adv-x="666" 
d="M219 178c0 -3 -1 -6 -7 -6h-160c-6 0 -8 3 -8 6s1 5 8 5h42c5 0 6 5 6 28v303h-1c-10 -46 -39 -99 -64 -131c-3 -5 -7 -6 -12 -3c-4 4 -2 9 1 12c17 20 76 105 76 184c0 3 3 6 8 6h64c6 0 7 -2 7 -5v-366c0 -23 1 -28 7 -28h26c6 0 7 -2 7 -5zM566 633l-437 -684
c-3 -4 -6 -6 -12 -2c-5 3 -6 7 -3 11l438 683c3 4 6 6 12 3c5 -4 5 -7 2 -11zM661 39c1 -3 2 -5 -5 -9c-22 -13 -41 -21 -68 -22c-4 -1 -6 -2 -6 -7v-83c0 -3 -1 -7 -7 -6c-8 1 -22 2 -33 2s-26 -1 -32 -2s-8 3 -8 6v93c0 6 -2 7 -8 9c-27 8 -53 17 -81 17
c-29 0 -67 -14 -92 -49c-3 -3 -7 -5 -11 -2c-3 3 -1 8 2 13c111 145 162 215 160 404c0 3 4 5 7 5c10 0 23 1 36 2c16 2 33 5 44 8c4 1 7 -1 6 -6c-14 -159 -117 -266 -218 -384l1 -1c22 16 46 22 66 22c28 0 55 -10 81 -18c6 -2 7 1 7 6v146c0 5 1 7 6 11
c19 12 47 36 62 58c1 2 4 4 7 4c4 0 5 -3 5 -7v-223c0 -6 1 -8 6 -8c30 2 47 11 62 22c4 2 9 4 11 -1z" />
    <glyph glyph-name="onesuperior" unicode="&#xb9;" horiz-adv-x="260" 
d="M224 178c0 -3 -2 -6 -8 -6h-159c-6 0 -8 3 -8 6s1 5 8 5h42c5 0 6 5 6 28v303h-1c-10 -46 -40 -99 -64 -131c-3 -5 -7 -6 -12 -3c-4 4 -2 9 1 12c17 20 76 105 76 184c0 3 3 6 8 6h64c6 0 7 -2 7 -5v-366c0 -23 1 -28 7 -28h25c7 0 8 -2 8 -5z" />
    <glyph glyph-name="threequarters" unicode="&#xbe;" horiz-adv-x="729" 
d="M316 318c0 -101 -75 -153 -161 -153c-83 0 -135 41 -135 87c0 28 19 48 44 48c24 0 44 -19 44 -45c0 -28 -22 -35 -22 -49c0 -8 15 -32 67 -32c42 0 66 19 70 86c2 35 2 60 1 95c-2 79 -38 86 -64 86h-52c-7 0 -9 3 -9 7s2 5 8 5h50c39 0 54 36 54 112
c0 85 -29 103 -67 103c-39 0 -57 -14 -57 -29c0 -17 22 -16 22 -47c0 -25 -21 -41 -43 -41c-25 0 -43 17 -43 43c0 51 60 84 125 84c83 0 153 -36 153 -112c0 -61 -45 -102 -108 -116v-1c40 -4 123 -30 123 -131zM630 633l-438 -684c-3 -4 -6 -6 -11 -2c-6 3 -7 7 -4 11
l438 683c3 4 6 6 12 3c6 -4 5 -7 3 -11zM724 39c1 -3 2 -5 -5 -9c-21 -13 -41 -21 -68 -22c-4 -1 -6 -2 -6 -7v-83c0 -3 -1 -7 -7 -6c-7 1 -22 2 -33 2s-26 -1 -32 -2s-8 3 -8 6v93c0 6 -2 7 -8 9c-27 8 -52 17 -81 17s-67 -14 -92 -49c-3 -3 -7 -5 -10 -2c-4 3 -2 8 2 13
c110 145 161 215 159 404c0 3 4 5 7 5c10 0 23 1 36 2c17 2 33 5 44 8c5 1 7 -1 7 -6c-15 -159 -118 -266 -219 -384l1 -1c23 16 46 22 66 22c29 0 55 -10 81 -18c6 -2 7 1 7 6v146c0 5 2 7 6 11c19 12 47 36 62 58c1 2 4 4 7 4c4 0 5 -3 5 -7v-223c0 -6 1 -8 6 -8
c30 2 47 11 62 22c4 2 9 4 11 -1z" />
    <glyph glyph-name="threesuperior" unicode="&#xb3;" horiz-adv-x="369" 
d="M324 318c0 -101 -75 -153 -161 -153c-83 0 -135 41 -135 87c0 28 19 48 45 48c23 0 43 -19 43 -45c0 -28 -22 -35 -22 -49c0 -8 16 -32 67 -32c42 0 66 19 70 86c2 35 3 60 1 95c-2 79 -38 86 -64 86h-52c-7 0 -9 3 -9 7s3 5 9 5h49c39 0 54 36 54 112
c0 85 -29 103 -67 103c-39 0 -57 -14 -57 -29c0 -17 22 -16 22 -47c0 -25 -21 -41 -43 -41c-25 0 -43 17 -43 43c0 51 61 84 126 84c83 0 152 -36 152 -112c0 -61 -45 -102 -108 -116v-1c40 -4 123 -30 123 -131z" />
    <glyph glyph-name="twosuperior" unicode="&#xb2;" horiz-adv-x="365" 
d="M329 180c0 -4 -3 -8 -7 -8h-295c-3 0 -5 4 -5 6s0 5 2 6c156 98 189 150 189 283c0 99 -28 113 -68 113c-35 0 -56 -11 -56 -29c0 -15 22 -20 22 -49c0 -25 -21 -41 -44 -41c-25 0 -43 18 -43 44c0 51 62 84 126 84c55 0 155 -17 155 -120c0 -85 -63 -141 -188 -233v-1
h178c17 0 24 5 24 26v17c0 6 2 7 5 7s5 -1 5 -6v-99z" />
    <glyph glyph-name="brokenbar" unicode="&#xa6;" horiz-adv-x="245" 
d="M139 329c0 -9 -3 -14 -10 -14c-8 0 -12 5 -12 14v382c0 9 3 14 10 14c8 0 12 -5 12 -14v-382zM139 -271c0 -9 -3 -14 -10 -14c-8 0 -12 5 -12 14v382c0 9 3 14 10 14c8 0 12 -5 12 -14v-382z" />
    <glyph glyph-name="minus" unicode="&#x2212;" horiz-adv-x="390" 
d="M360 284c0 -7 -4 -10 -12 -10h-305c-8 0 -13 2 -13 9s5 10 13 10h305c8 0 12 -2 12 -9z" />
    <glyph glyph-name="multiply" unicode="&#xd7;" horiz-adv-x="390" 
d="M334 147c-5 -5 -11 -4 -17 2l-122 122l-122 -122c-6 -6 -11 -7 -16 -2s-4 11 2 17l121 121l-121 121c-6 6 -8 12 -3 17s11 4 17 -2l122 -122l122 122c6 6 11 8 16 3s4 -11 -2 -17l-122 -122l122 -122c6 -6 8 -11 3 -16z" />
    <glyph glyph-name="Adieresis" unicode="&#xc4;" horiz-adv-x="637" 
d="M635 6c0 -3 -1 -6 -9 -6h-238c-8 0 -9 3 -9 6s1 6 9 6h41c18 0 24 8 10 50l-67 199c-1 3 -1 6 -8 6h-195c-7 0 -7 -3 -8 -6l-20 -61c-24 -76 -41 -188 39 -188h22c8 0 9 -3 9 -6s-1 -6 -9 -6h-191c-8 0 -9 3 -9 6s1 6 9 6h3c32 0 61 28 112 190l159 508c1 4 4 6 9 6h44
c5 0 7 -2 9 -6l223 -648c15 -43 21 -50 37 -50h19c8 0 9 -3 9 -6zM363 287l-99 306h-2l-94 -308c-1 -3 1 -6 8 -6h178c7 0 10 5 9 8zM452 843c0 -32 -23 -56 -53 -56c-29 0 -54 24 -54 56c0 31 25 56 54 56c30 0 53 -25 53 -56zM295 843c0 -32 -23 -56 -53 -56
c-29 0 -54 24 -54 56c0 31 25 56 54 56c30 0 53 -25 53 -56z" />
    <glyph glyph-name="Aring" unicode="&#xc5;" horiz-adv-x="637" 
d="M635 6c0 -3 -1 -6 -9 -6h-238c-8 0 -9 3 -9 6s1 6 9 6h41c18 0 24 8 10 50l-67 199c-1 3 -1 6 -8 6h-195c-7 0 -7 -3 -8 -6l-20 -61c-24 -76 -41 -188 39 -188h22c8 0 9 -3 9 -6s-1 -6 -9 -6h-191c-8 0 -9 3 -9 6s1 6 9 6h3c32 0 61 28 112 190l159 508c1 4 4 6 9 6h44
c5 0 7 -2 9 -6l223 -648c15 -43 21 -50 37 -50h19c8 0 9 -3 9 -6zM363 287l-99 306h-2l-94 -308c-1 -3 1 -6 8 -6h178c7 0 10 5 9 8zM428 856c0 -58 -38 -106 -111 -106c-69 0 -112 47 -112 105s38 106 111 106c70 0 112 -48 112 -105zM366 815c3 26 3 56 0 81
c-2 25 -9 56 -49 56c-43 0 -47 -31 -50 -57c-2 -26 -2 -55 0 -81c3 -24 10 -54 50 -54c43 0 47 29 49 55z" />
    <glyph glyph-name="Ccedilla" unicode="&#xc7;" horiz-adv-x="588" 
d="M554 7c0 -8 -5 -10 -8 -10s-5 1 -5 10v7c0 20 -25 9 -48 1c-45 -17 -102 -26 -145 -27c-8 0 -11 -2 -16 -8l-45 -55l1 -1c18 10 32 12 48 12c45 0 85 -32 85 -81c0 -58 -48 -89 -100 -89c-31 0 -59 13 -80 34c-4 5 -6 8 -2 12c3 3 6 2 9 -1c16 -16 36 -30 64 -30
c34 0 49 24 49 73c0 43 -14 68 -43 68c-12 0 -24 -5 -32 -11c-4 -3 -7 -3 -10 1l-3 4c-3 3 -3 5 0 8l44 56c6 7 6 8 -2 9c-196 8 -282 191 -282 360c0 204 93 369 294 369c52 0 108 -16 134 -26c21 -8 46 -20 46 0v7c0 9 2 10 5 10s8 -2 8 -10v-241c0 -7 -4 -9 -7 -9
s-6 1 -6 9v11c0 158 -85 239 -179 239c-146 0 -140 -141 -145 -211c-7 -97 -7 -196 0 -293c8 -108 23 -205 151 -205c123 0 207 95 207 247v17c0 8 3 9 6 9s7 -2 7 -9v-256z" />
    <glyph glyph-name="Eacute" unicode="&#xc9;" horiz-adv-x="580" 
d="M532 7c0 -4 -2 -7 -9 -7h-482c-8 0 -9 3 -9 6s1 6 9 6h45c10 0 11 10 11 42v598c0 32 -1 42 -11 42h-45c-8 0 -9 3 -9 6s1 6 9 6h449c7 0 9 -4 9 -8v-215c0 -7 -3 -8 -6 -8c-4 0 -8 0 -8 8v11c0 106 -54 200 -158 200h-100c-7 0 -10 -3 -10 -6v-308c0 -3 2 -5 9 -5h60
c55 0 102 42 102 100v8c0 8 3 9 6 9s6 -2 6 -9v-228c0 -7 -3 -9 -6 -9s-6 1 -6 9v7c0 59 -47 102 -102 102h-59c-7 0 -10 -3 -10 -6v-340c0 -3 2 -6 9 -6h94c154 0 198 136 198 208v9c0 8 4 9 7 9c4 0 7 -2 7 -9v-222zM439 926c0 -23 -31 -54 -46 -72l-99 -121
c-2 -3 -6 -7 -9 -5s-1 7 1 11l61 143c10 25 24 79 57 79c19 0 35 -16 35 -35z" />
    <glyph glyph-name="Ntilde" unicode="&#xd1;" horiz-adv-x="673" 
d="M646 700c0 -3 -1 -6 -9 -6h-2c-48 0 -62 -38 -62 -224v-474c0 -3 -2 -6 -10 -6h-50c-7 0 -9 3 -10 6l-389 655h-1v-407c0 -166 26 -232 106 -232h13c8 0 9 -3 9 -6s-1 -6 -9 -6h-196c-8 0 -9 3 -9 6s1 6 9 6h2c48 0 62 38 62 225v415c0 32 -1 42 -10 42h-48
c-8 0 -9 3 -9 6s1 6 9 6h172c5 0 8 -3 10 -6l334 -565h2v327c0 166 -27 232 -106 232h-11c-9 0 -10 3 -10 6s2 6 10 6h194c8 0 9 -3 9 -6zM501 915c-14 -92 -44 -114 -84 -114c-36 0 -120 25 -154 25c-20 0 -37 -7 -49 -53c-1 -5 -1 -10 -7 -9c-4 1 -4 3 -3 8
c13 92 43 114 84 114c36 0 120 -24 153 -24c21 0 38 6 49 52c2 5 2 11 8 9c3 0 4 -3 3 -8z" />
    <glyph glyph-name="Odieresis" unicode="&#xd6;" horiz-adv-x="657" 
d="M625 356c0 -202 -95 -368 -295 -368c-192 0 -297 165 -297 362c0 202 95 368 294 368c192 0 298 -165 298 -362zM474 209c8 97 8 198 0 295c-5 63 -7 204 -142 204c-154 0 -144 -141 -149 -211c-8 -97 -7 -197 0 -294c5 -63 7 -205 142 -205c154 0 144 141 149 211z
M461 843c0 -32 -23 -56 -53 -56c-29 0 -54 24 -54 56c0 31 25 56 54 56c30 0 53 -25 53 -56zM304 843c0 -32 -23 -56 -53 -56c-29 0 -54 24 -54 56c0 31 25 56 54 56c30 0 53 -25 53 -56z" />
    <glyph glyph-name="Udieresis" unicode="&#xdc;" horiz-adv-x="672" 
d="M651 700c0 -3 -1 -6 -9 -6h-3c-47 0 -61 -38 -61 -224v-262c0 -134 -56 -220 -232 -220c-162 0 -257 97 -257 197v467c0 32 -1 42 -10 42h-46c-8 0 -9 3 -9 6s1 6 9 6h240c8 0 10 -3 10 -6s-1 -6 -10 -6h-53c-10 0 -11 -10 -11 -42v-507c0 -96 60 -143 152 -143
c161 0 203 83 203 209v251c0 166 -17 232 -91 232h-12c-8 0 -9 3 -9 6s1 6 9 6h181c8 0 9 -3 9 -6zM500 843c0 -32 -23 -56 -53 -56c-29 0 -54 24 -54 56c0 31 25 56 54 56c30 0 53 -25 53 -56zM343 843c0 -32 -23 -56 -53 -56c-29 0 -54 24 -54 56c0 31 25 56 54 56
c30 0 53 -25 53 -56z" />
    <glyph glyph-name="aacute" unicode="&#xe1;" horiz-adv-x="443" 
d="M439 35c3 -1 5 -3 2 -8c-10 -17 -36 -39 -84 -39c-46 0 -76 21 -81 57h-2c-26 -42 -63 -57 -118 -57c-82 0 -130 46 -130 109c0 65 38 96 91 108c29 7 77 19 104 29c37 12 52 19 52 43v63c0 72 -33 83 -73 83c-61 0 -76 -20 -76 -35c0 -21 29 -22 29 -57
c0 -30 -24 -47 -52 -47c-30 0 -52 21 -52 51c0 58 74 98 152 98c103 0 175 -49 175 -143v-255c0 -16 4 -29 20 -29c13 0 28 11 35 25c3 4 4 6 8 4zM273 80v164c-88 -37 -130 -43 -134 -120c-1 -21 -1 -52 1 -72c2 -23 10 -50 50 -50c44 0 83 40 83 78zM345 683
c0 -23 -31 -54 -46 -72l-99 -121c-2 -3 -6 -7 -9 -5s-1 7 1 11l61 143c10 25 24 79 57 79c19 0 35 -16 35 -35z" />
    <glyph glyph-name="agrave" unicode="&#xe0;" horiz-adv-x="443" 
d="M439 35c3 -1 5 -3 2 -8c-10 -17 -36 -39 -84 -39c-46 0 -76 21 -81 57h-2c-26 -42 -63 -57 -118 -57c-82 0 -130 46 -130 109c0 65 38 96 91 108c29 7 77 19 104 29c37 12 52 19 52 43v63c0 72 -33 83 -73 83c-61 0 -76 -20 -76 -35c0 -21 29 -22 29 -57
c0 -30 -24 -47 -52 -47c-30 0 -52 21 -52 51c0 58 74 98 152 98c103 0 175 -49 175 -143v-255c0 -16 4 -29 20 -29c13 0 28 11 35 25c3 4 4 6 8 4zM273 80v164c-88 -37 -130 -43 -134 -120c-1 -21 -1 -52 1 -72c2 -23 10 -50 50 -50c44 0 83 40 83 78zM216 485
c-3 -2 -6 2 -8 5l-99 121c-15 18 -47 49 -47 72c0 19 17 35 36 35c32 0 46 -54 57 -79l61 -143c2 -4 3 -9 0 -11z" />
    <glyph glyph-name="acircumflex" unicode="&#xe2;" horiz-adv-x="443" 
d="M439 35c3 -1 5 -3 2 -8c-10 -17 -36 -39 -84 -39c-46 0 -76 21 -81 57h-2c-26 -42 -63 -57 -118 -57c-82 0 -130 46 -130 109c0 65 38 96 91 108c29 7 77 19 104 29c37 12 52 19 52 43v63c0 72 -33 83 -73 83c-61 0 -76 -20 -76 -35c0 -21 29 -22 29 -57
c0 -30 -24 -47 -52 -47c-30 0 -52 21 -52 51c0 58 74 98 152 98c103 0 175 -49 175 -143v-255c0 -16 4 -29 20 -29c13 0 28 11 35 25c3 4 4 6 8 4zM273 80v164c-88 -37 -130 -43 -134 -120c-1 -21 -1 -52 1 -72c2 -23 10 -50 50 -50c44 0 83 40 83 78zM333 485
c-3 -2 -7 2 -9 5l-110 148h-1l-110 -148c-2 -3 -6 -7 -9 -5s-1 7 0 11l61 143c21 50 30 79 58 79c29 0 37 -29 58 -79l62 -143c1 -4 3 -9 0 -11z" />
    <glyph glyph-name="adieresis" unicode="&#xe4;" horiz-adv-x="443" 
d="M439 35c3 -1 5 -3 2 -8c-10 -17 -36 -39 -84 -39c-46 0 -76 21 -81 57h-2c-26 -42 -63 -57 -118 -57c-82 0 -130 46 -130 109c0 65 38 96 91 108c29 7 77 19 104 29c37 12 52 19 52 43v63c0 72 -33 83 -73 83c-61 0 -76 -20 -76 -35c0 -21 29 -22 29 -57
c0 -30 -24 -47 -52 -47c-30 0 -52 21 -52 51c0 58 74 98 152 98c103 0 175 -49 175 -143v-255c0 -16 4 -29 20 -29c13 0 28 11 35 25c3 4 4 6 8 4zM273 80v164c-88 -37 -130 -43 -134 -120c-1 -21 -1 -52 1 -72c2 -23 10 -50 50 -50c44 0 83 40 83 78zM346 646
c0 -32 -23 -56 -53 -56c-29 0 -54 24 -54 56c0 31 25 56 54 56c30 0 53 -25 53 -56zM189 646c0 -32 -23 -56 -53 -56c-29 0 -54 24 -54 56c0 31 25 56 54 56c30 0 53 -25 53 -56z" />
    <glyph glyph-name="atilde" unicode="&#xe3;" horiz-adv-x="443" 
d="M439 35c3 -1 5 -3 2 -8c-10 -17 -36 -39 -84 -39c-46 0 -76 21 -81 57h-2c-26 -42 -63 -57 -118 -57c-82 0 -130 46 -130 109c0 65 38 96 91 108c29 7 77 19 104 29c37 12 52 19 52 43v63c0 72 -33 83 -73 83c-61 0 -76 -20 -76 -35c0 -21 29 -22 29 -57
c0 -30 -24 -47 -52 -47c-30 0 -52 21 -52 51c0 58 74 98 152 98c103 0 175 -49 175 -143v-255c0 -16 4 -29 20 -29c13 0 28 11 35 25c3 4 4 6 8 4zM273 80v164c-88 -37 -130 -43 -134 -120c-1 -21 -1 -52 1 -72c2 -23 10 -50 50 -50c44 0 83 40 83 78zM370 710
c-14 -92 -44 -114 -84 -114c-36 0 -120 25 -154 25c-20 0 -37 -7 -49 -53c-1 -5 -1 -10 -7 -9c-4 1 -4 3 -3 8c13 92 43 114 84 114c36 0 120 -24 153 -24c21 0 38 6 49 52c2 5 2 11 8 9c3 0 4 -3 3 -8z" />
    <glyph glyph-name="aring" unicode="&#xe5;" horiz-adv-x="443" 
d="M439 35c3 -1 5 -3 2 -8c-10 -17 -36 -39 -84 -39c-46 0 -76 21 -81 57h-2c-26 -42 -63 -57 -118 -57c-82 0 -130 46 -130 109c0 65 38 96 91 108c29 7 77 19 104 29c37 12 52 19 52 43v63c0 72 -33 83 -73 83c-61 0 -76 -20 -76 -35c0 -21 29 -22 29 -57
c0 -30 -24 -47 -52 -47c-30 0 -52 21 -52 51c0 58 74 98 152 98c103 0 175 -49 175 -143v-255c0 -16 4 -29 20 -29c13 0 28 11 35 25c3 4 4 6 8 4zM273 80v164c-88 -37 -130 -43 -134 -120c-1 -21 -1 -52 1 -72c2 -23 10 -50 50 -50c44 0 83 40 83 78zM325 613
c0 -58 -38 -106 -111 -106c-69 0 -112 47 -112 105s38 106 111 106c70 0 112 -48 112 -105zM263 572c3 26 3 56 0 81c-2 25 -9 56 -49 56c-43 0 -47 -31 -50 -57c-2 -26 -2 -55 0 -81c3 -24 10 -54 50 -54c43 0 47 29 49 55z" />
    <glyph glyph-name="ccedilla" unicode="&#xe7;" horiz-adv-x="431" 
d="M398 153c0 -75 -46 -157 -148 -164c-8 -1 -12 -3 -15 -7l-47 -57l1 -1c18 10 31 12 48 12c45 0 84 -32 84 -81c0 -58 -48 -89 -100 -89c-31 0 -59 13 -80 34c-4 5 -6 8 -2 12c4 3 7 2 10 -1c15 -16 36 -30 63 -30c35 0 49 24 49 73c0 43 -14 68 -43 68
c-12 0 -23 -5 -32 -11c-4 -3 -7 -3 -10 1l-3 4c-2 3 -3 5 0 8l47 58c3 4 2 6 -4 6c-130 8 -192 104 -192 221c0 105 51 224 210 224c73 0 153 -38 153 -106c0 -35 -25 -58 -56 -58s-56 21 -56 54c0 40 28 43 28 65s-29 35 -66 35c-68 0 -81 -44 -88 -116
c-6 -58 -6 -129 -1 -188c5 -56 30 -118 102 -118c67 0 131 54 131 147c0 10 0 16 9 16c5 0 8 -3 8 -11z" />
    <glyph glyph-name="eacute" unicode="&#xe9;" horiz-adv-x="444" 
d="M415 153c0 -74 -44 -165 -172 -165c-148 0 -219 95 -219 221c0 115 62 224 202 224c104 0 184 -60 184 -153c0 -30 -9 -39 -29 -39h-229c-3 0 -7 0 -7 -6c-1 -37 0 -79 3 -116c6 -57 29 -118 108 -118c80 0 143 55 143 147c0 10 0 16 9 16c5 0 7 -3 7 -11zM301 261
c0 27 -2 59 -7 88c-8 44 -28 74 -69 74c-60 0 -71 -56 -76 -113c-2 -16 -2 -34 -3 -51c0 -6 3 -6 6 -6h141c3 0 8 2 8 8zM375 683c0 -23 -31 -54 -46 -72l-99 -121c-2 -3 -6 -7 -9 -5s-1 7 1 11l61 143c10 25 24 79 57 79c19 0 35 -16 35 -35z" />
    <glyph glyph-name="egrave" unicode="&#xe8;" horiz-adv-x="444" 
d="M415 153c0 -74 -44 -165 -172 -165c-148 0 -219 95 -219 221c0 115 62 224 202 224c104 0 184 -60 184 -153c0 -30 -9 -39 -29 -39h-229c-3 0 -7 0 -7 -6c-1 -37 0 -79 3 -116c6 -57 29 -118 108 -118c80 0 143 55 143 147c0 10 0 16 9 16c5 0 7 -3 7 -11zM301 261
c0 27 -2 59 -7 88c-8 44 -28 74 -69 74c-60 0 -71 -56 -76 -113c-2 -16 -2 -34 -3 -51c0 -6 3 -6 6 -6h141c3 0 8 2 8 8zM241 485c-3 -2 -6 2 -8 5l-99 121c-15 18 -47 49 -47 72c0 19 17 35 36 35c32 0 46 -54 57 -79l61 -143c2 -4 3 -9 0 -11z" />
    <glyph glyph-name="ecircumflex" unicode="&#xea;" horiz-adv-x="444" 
d="M415 153c0 -74 -44 -165 -172 -165c-148 0 -219 95 -219 221c0 115 62 224 202 224c104 0 184 -60 184 -153c0 -30 -9 -39 -29 -39h-229c-3 0 -7 0 -7 -6c-1 -37 0 -79 3 -116c6 -57 29 -118 108 -118c80 0 143 55 143 147c0 10 0 16 9 16c5 0 7 -3 7 -11zM301 261
c0 27 -2 59 -7 88c-8 44 -28 74 -69 74c-60 0 -71 -56 -76 -113c-2 -16 -2 -34 -3 -51c0 -6 3 -6 6 -6h141c3 0 8 2 8 8zM350 485c-3 -2 -7 2 -9 5l-110 148h-1l-110 -148c-2 -3 -6 -7 -9 -5s-1 7 0 11l61 143c21 50 30 79 58 79c29 0 37 -29 58 -79l62 -143
c1 -4 3 -9 0 -11z" />
    <glyph glyph-name="edieresis" unicode="&#xeb;" horiz-adv-x="444" 
d="M415 153c0 -74 -44 -165 -172 -165c-148 0 -219 95 -219 221c0 115 62 224 202 224c104 0 184 -60 184 -153c0 -30 -9 -39 -29 -39h-229c-3 0 -7 0 -7 -6c-1 -37 0 -79 3 -116c6 -57 29 -118 108 -118c80 0 143 55 143 147c0 10 0 16 9 16c5 0 7 -3 7 -11zM301 261
c0 27 -2 59 -7 88c-8 44 -28 74 -69 74c-60 0 -71 -56 -76 -113c-2 -16 -2 -34 -3 -51c0 -6 3 -6 6 -6h141c3 0 8 2 8 8zM359 646c0 -32 -23 -56 -53 -56c-29 0 -54 24 -54 56c0 31 25 56 54 56c30 0 53 -25 53 -56zM202 646c0 -32 -23 -56 -53 -56c-29 0 -54 24 -54 56
c0 31 25 56 54 56c30 0 53 -25 53 -56z" />
    <glyph glyph-name="iacute" unicode="&#xed;" horiz-adv-x="249" 
d="M234 5c0 -3 -1 -5 -8 -5h-205c-7 0 -8 2 -8 5s1 6 8 6h42c8 0 9 9 9 38v324c0 29 -1 38 -9 38h-42c-7 0 -8 2 -8 5s1 5 8 5h146c7 0 8 -2 8 -5v-367c0 -29 1 -38 9 -38h42c7 0 8 -3 8 -6zM264 683c0 -23 -31 -54 -46 -72l-99 -121c-2 -3 -6 -7 -9 -5s-1 7 1 11l61 143
c10 25 24 79 57 79c19 0 35 -16 35 -35z" />
    <glyph glyph-name="igrave" unicode="&#xec;" horiz-adv-x="249" 
d="M234 5c0 -3 -1 -5 -8 -5h-205c-7 0 -8 2 -8 5s1 6 8 6h42c8 0 9 9 9 38v324c0 29 -1 38 -9 38h-42c-7 0 -8 2 -8 5s1 5 8 5h146c7 0 8 -2 8 -5v-367c0 -29 1 -38 9 -38h42c7 0 8 -3 8 -6zM131 485c-3 -2 -6 2 -8 5l-99 121c-15 18 -47 49 -47 72c0 19 17 35 36 35
c32 0 46 -54 57 -79l61 -143c2 -4 3 -9 0 -11z" />
    <glyph glyph-name="icircumflex" unicode="&#xee;" horiz-adv-x="249" 
d="M234 5c0 -3 -1 -5 -8 -5h-205c-7 0 -8 2 -8 5s1 6 8 6h42c8 0 9 9 9 38v324c0 29 -1 38 -9 38h-42c-7 0 -8 2 -8 5s1 5 8 5h146c7 0 8 -2 8 -5v-367c0 -29 1 -38 9 -38h42c7 0 8 -3 8 -6zM240 485c-3 -2 -7 2 -9 5l-110 148h-1l-110 -148c-2 -3 -6 -7 -9 -5s-1 7 0 11
l61 143c21 50 30 79 58 79c29 0 37 -29 58 -79l62 -143c1 -4 3 -9 0 -11z" />
    <glyph glyph-name="idieresis" unicode="&#xef;" horiz-adv-x="249" 
d="M234 5c0 -3 -1 -5 -8 -5h-205c-7 0 -8 2 -8 5s1 6 8 6h42c8 0 9 9 9 38v324c0 29 -1 38 -9 38h-42c-7 0 -8 2 -8 5s1 5 8 5h146c7 0 8 -2 8 -5v-367c0 -29 1 -38 9 -38h42c7 0 8 -3 8 -6zM257 646c0 -32 -23 -56 -53 -56c-29 0 -54 24 -54 56c0 31 25 56 54 56
c30 0 53 -25 53 -56zM100 646c0 -32 -23 -56 -53 -56c-29 0 -54 24 -54 56c0 31 25 56 54 56c30 0 53 -25 53 -56z" />
    <glyph glyph-name="ntilde" unicode="&#xf1;" horiz-adv-x="517" 
d="M511 5c0 -3 -2 -5 -9 -5h-201c-8 0 -9 2 -9 5s1 5 9 5h39c8 0 9 10 9 39v287c0 76 -51 86 -80 86c-66 0 -94 -57 -94 -82v-291c0 -29 1 -39 9 -39h40c7 0 8 -2 8 -5s-1 -5 -8 -5h-203c-7 0 -8 2 -8 5s1 5 8 5h42c8 0 9 10 9 39v324c0 29 -1 38 -9 38h-42c-7 0 -8 2 -8 5
s1 5 8 5h143c7 0 9 -2 9 -5v-39h2c18 29 53 56 117 56c67 0 160 -39 160 -156v-228c0 -29 1 -39 10 -39h40c8 0 9 -2 9 -5zM424 710c-14 -92 -44 -114 -84 -114c-36 0 -120 25 -154 25c-20 0 -37 -7 -49 -53c-1 -5 -1 -10 -7 -9c-4 1 -4 3 -3 8c13 92 43 114 84 114
c36 0 120 -24 153 -24c21 0 38 6 49 52c2 5 2 11 8 9c3 0 4 -3 3 -8z" />
    <glyph glyph-name="oacute" unicode="&#xf3;" horiz-adv-x="487" 
d="M463 212c0 -123 -79 -224 -219 -224c-135 0 -220 101 -220 221c0 123 79 224 219 224c136 0 220 -101 220 -221zM339 121c5 58 5 123 0 181c-5 56 -18 121 -96 121c-83 0 -89 -65 -94 -123c-6 -58 -6 -123 0 -181c5 -56 17 -121 95 -121c83 0 90 65 95 123zM392 683
c0 -23 -31 -54 -46 -72l-99 -121c-2 -3 -6 -7 -9 -5s-1 7 1 11l61 143c10 25 24 79 57 79c19 0 35 -16 35 -35z" />
    <glyph glyph-name="ograve" unicode="&#xf2;" horiz-adv-x="487" 
d="M463 212c0 -123 -79 -224 -219 -224c-135 0 -220 101 -220 221c0 123 79 224 219 224c136 0 220 -101 220 -221zM339 121c5 58 5 123 0 181c-5 56 -18 121 -96 121c-83 0 -89 -65 -94 -123c-6 -58 -6 -123 0 -181c5 -56 17 -121 95 -121c83 0 90 65 95 123zM249 485
c-3 -2 -6 2 -8 5l-99 121c-15 18 -47 49 -47 72c0 19 17 35 36 35c32 0 46 -54 57 -79l61 -143c2 -4 3 -9 0 -11z" />
    <glyph glyph-name="ocircumflex" unicode="&#xf4;" horiz-adv-x="487" 
d="M463 212c0 -123 -79 -224 -219 -224c-135 0 -220 101 -220 221c0 123 79 224 219 224c136 0 220 -101 220 -221zM339 121c5 58 5 123 0 181c-5 56 -18 121 -96 121c-83 0 -89 -65 -94 -123c-6 -58 -6 -123 0 -181c5 -56 17 -121 95 -121c83 0 90 65 95 123zM364 485
c-3 -2 -7 2 -9 5l-110 148h-1l-110 -148c-2 -3 -6 -7 -9 -5s-1 7 0 11l61 143c21 50 30 79 58 79c29 0 37 -29 58 -79l62 -143c1 -4 3 -9 0 -11z" />
    <glyph glyph-name="odieresis" unicode="&#xf6;" horiz-adv-x="487" 
d="M463 212c0 -123 -79 -224 -219 -224c-135 0 -220 101 -220 221c0 123 79 224 219 224c136 0 220 -101 220 -221zM339 121c5 58 5 123 0 181c-5 56 -18 121 -96 121c-83 0 -89 -65 -94 -123c-6 -58 -6 -123 0 -181c5 -56 17 -121 95 -121c83 0 90 65 95 123zM379 646
c0 -32 -23 -56 -53 -56c-29 0 -54 24 -54 56c0 31 25 56 54 56c30 0 53 -25 53 -56zM222 646c0 -32 -23 -56 -53 -56c-29 0 -54 24 -54 56c0 31 25 56 54 56c30 0 53 -25 53 -56z" />
    <glyph glyph-name="otilde" unicode="&#xf5;" horiz-adv-x="487" 
d="M463 212c0 -123 -79 -224 -219 -224c-135 0 -220 101 -220 221c0 123 79 224 219 224c136 0 220 -101 220 -221zM339 121c5 58 5 123 0 181c-5 56 -18 121 -96 121c-83 0 -89 -65 -94 -123c-6 -58 -6 -123 0 -181c5 -56 17 -121 95 -121c83 0 90 65 95 123zM404 710
c-14 -92 -44 -114 -84 -114c-36 0 -120 25 -154 25c-20 0 -37 -7 -49 -53c-1 -5 -1 -10 -7 -9c-4 1 -4 3 -3 8c13 92 43 114 84 114c36 0 120 -24 153 -24c21 0 38 6 49 52c2 5 2 11 8 9c3 0 4 -3 3 -8z" />
    <glyph glyph-name="uacute" unicode="&#xfa;" 
d="M497 5c0 -3 -1 -5 -8 -5h-144c-7 0 -8 2 -8 5v40h-2c-19 -30 -52 -57 -113 -57c-66 0 -157 38 -157 156v228c0 29 -1 39 -9 39h-41c-7 0 -8 2 -8 5s1 5 8 5h144c8 0 9 -2 9 -5v-331c0 -75 49 -86 77 -86c60 0 90 55 90 82v291c0 29 -1 39 -10 39h-39c-7 0 -8 2 -8 5
s1 5 8 5h143c8 0 9 -2 9 -5v-368c0 -29 1 -38 9 -38h42c7 0 8 -2 8 -5zM396 683c0 -23 -31 -54 -46 -72l-99 -121c-2 -3 -6 -7 -9 -5s-1 7 1 11l61 143c10 25 24 79 57 79c19 0 35 -16 35 -35z" />
    <glyph glyph-name="ugrave" unicode="&#xf9;" 
d="M497 5c0 -3 -1 -5 -8 -5h-144c-7 0 -8 2 -8 5v40h-2c-19 -30 -52 -57 -113 -57c-66 0 -157 38 -157 156v228c0 29 -1 39 -9 39h-41c-7 0 -8 2 -8 5s1 5 8 5h144c8 0 9 -2 9 -5v-331c0 -75 49 -86 77 -86c60 0 90 55 90 82v291c0 29 -1 39 -10 39h-39c-7 0 -8 2 -8 5
s1 5 8 5h143c8 0 9 -2 9 -5v-368c0 -29 1 -38 9 -38h42c7 0 8 -2 8 -5zM250 485c-3 -2 -6 2 -8 5l-99 121c-15 18 -47 49 -47 72c0 19 17 35 36 35c32 0 46 -54 57 -79l61 -143c2 -4 3 -9 0 -11z" />
    <glyph glyph-name="ucircumflex" unicode="&#xfb;" 
d="M497 5c0 -3 -1 -5 -8 -5h-144c-7 0 -8 2 -8 5v40h-2c-19 -30 -52 -57 -113 -57c-66 0 -157 38 -157 156v228c0 29 -1 39 -9 39h-41c-7 0 -8 2 -8 5s1 5 8 5h144c8 0 9 -2 9 -5v-331c0 -75 49 -86 77 -86c60 0 90 55 90 82v291c0 29 -1 39 -10 39h-39c-7 0 -8 2 -8 5
s1 5 8 5h143c8 0 9 -2 9 -5v-368c0 -29 1 -38 9 -38h42c7 0 8 -2 8 -5zM361 485c-3 -2 -7 2 -9 5l-110 148h-1l-110 -148c-2 -3 -6 -7 -9 -5s-1 7 0 11l61 143c21 50 30 79 58 79c29 0 37 -29 58 -79l62 -143c1 -4 3 -9 0 -11z" />
    <glyph glyph-name="udieresis" unicode="&#xfc;" 
d="M497 5c0 -3 -1 -5 -8 -5h-144c-7 0 -8 2 -8 5v40h-2c-19 -30 -52 -57 -113 -57c-66 0 -157 38 -157 156v228c0 29 -1 39 -9 39h-41c-7 0 -8 2 -8 5s1 5 8 5h144c8 0 9 -2 9 -5v-331c0 -75 49 -86 77 -86c60 0 90 55 90 82v291c0 29 -1 39 -10 39h-39c-7 0 -8 2 -8 5
s1 5 8 5h143c8 0 9 -2 9 -5v-368c0 -29 1 -38 9 -38h42c7 0 8 -2 8 -5zM377 646c0 -32 -23 -56 -53 -56c-29 0 -54 24 -54 56c0 31 25 56 54 56c30 0 53 -25 53 -56zM220 646c0 -32 -23 -56 -53 -56c-29 0 -54 24 -54 56c0 31 25 56 54 56c30 0 53 -25 53 -56z" />
    <glyph glyph-name="degree" unicode="&#xb0;" horiz-adv-x="400" 
d="M335 458c0 -79 -56 -135 -135 -135s-135 56 -135 135s56 135 135 135s135 -56 135 -135zM309 458c0 77 -38 121 -109 121s-109 -44 -109 -121s38 -120 109 -120s109 43 109 120z" />
    <glyph glyph-name="registered" unicode="&#xae;" horiz-adv-x="724" 
d="M694 359c0 -202 -117 -347 -331 -347c-206 0 -333 144 -333 341c0 202 116 347 330 347c206 0 334 -144 334 -341zM677 359c0 192 -121 332 -317 332c-204 0 -313 -141 -313 -338c0 -192 120 -331 316 -331c204 0 314 140 314 337zM591 157c4 -2 4 -7 2 -10
c-10 -17 -29 -31 -66 -31c-58 0 -87 36 -87 81c0 33 1 57 0 90c0 50 -13 81 -64 81h-68c-5 0 -6 -2 -6 -3v-203c0 -21 1 -27 6 -27h32c6 0 7 -3 7 -6s-1 -5 -7 -5h-166c-6 0 -7 2 -7 5s1 6 7 6h32c5 0 6 6 6 27v401c0 21 -1 27 -6 27h-32c-6 0 -7 2 -7 5s1 5 7 5h219
c69 0 142 -31 142 -116c0 -76 -71 -105 -111 -109v-1c64 -10 108 -55 108 -131c0 -19 -1 -65 -1 -78c0 -17 1 -36 22 -36c13 0 25 12 30 24c2 3 5 5 8 4zM444 483c0 84 -30 107 -64 107h-72c-5 0 -6 -3 -6 -4v-204c0 -1 1 -3 6 -3h73c39 0 63 24 63 104z" />
    <glyph glyph-name="copyright" unicode="&#xa9;" horiz-adv-x="724" 
d="M694 359c0 -202 -117 -347 -331 -347c-206 0 -333 144 -333 341c0 202 116 347 330 347c206 0 334 -144 334 -341zM677 359c0 192 -121 332 -317 332c-204 0 -313 -141 -313 -338c0 -192 120 -331 316 -331c204 0 314 140 314 337zM528 130c0 -6 -4 -8 -7 -8s-5 4 -5 8v5
c0 12 -20 2 -31 -1c-35 -13 -81 -18 -112 -18c-144 0 -211 126 -211 243c0 137 70 249 209 249c35 0 74 -11 93 -17c9 -3 28 -14 28 -2v5c0 7 3 8 6 8c4 0 7 -1 7 -8v-161c0 -6 -3 -8 -7 -8c-3 0 -6 1 -6 8v7c0 105 -57 159 -121 159c-86 0 -92 -54 -99 -141
c-5 -65 -4 -131 0 -196c6 -73 16 -137 104 -137c83 0 140 65 140 167v9c0 6 2 7 5 7c4 0 7 -1 7 -7v-171z" />
    <glyph glyph-name="trademark" unicode="&#x2122;" horiz-adv-x="985" 
d="M955 267c0 -3 -2 -5 -8 -5h-166c-6 0 -7 2 -7 5s1 5 7 5h32c5 0 6 6 6 25v377h-1l-115 -411c-1 -5 -3 -7 -8 -7h-31c-5 0 -7 2 -9 6l-139 415h-1l1 -262c0 -119 16 -143 60 -143h6c6 0 8 -2 8 -5s-2 -5 -8 -5h-122c-6 0 -7 2 -7 5s1 5 7 5h2c32 0 42 23 42 139v260
c0 20 -1 25 -6 25h-33c-6 0 -7 1 -7 5c0 3 1 5 7 5h127c5 0 8 -2 10 -6l113 -352h1l98 352c2 5 5 6 10 6h123c6 0 8 -2 8 -5c0 -4 -2 -5 -8 -5h-31c-5 0 -7 -5 -7 -25v-374c0 -19 2 -25 7 -25h31c7 0 8 -2 8 -5zM431 558c0 -6 -3 -7 -7 -7c-3 0 -5 0 -5 7v11
c0 70 -37 127 -106 127h-42c-5 0 -6 -3 -6 -4v-395c0 -19 1 -25 6 -25h33c7 0 9 -2 9 -5s-3 -5 -9 -5h-168c-6 0 -7 2 -7 5s1 5 7 5h33c5 0 6 6 6 25v395c0 1 -1 4 -5 4h-43c-69 0 -105 -57 -105 -127v-11c0 -7 -2 -7 -5 -7s-6 1 -6 7v141c0 4 1 7 7 7h405c5 0 8 -3 8 -7
v-141z" />
    <glyph glyph-name="mu" unicode="&#xb5;" horiz-adv-x="504" 
d="M497 5c0 -3 -1 -5 -8 -5h-144c-7 0 -8 2 -8 5v40h-2c-19 -30 -52 -57 -113 -57c-58 0 -124 27 -147 96c0 -171 98 -236 98 -313c0 -30 -21 -55 -54 -55c-34 0 -54 29 -54 63v593c0 29 -1 39 -9 39h-41c-7 0 -8 2 -8 5s1 5 8 5h144c8 0 9 -2 9 -5v-331
c0 -75 49 -86 77 -86c60 0 90 55 90 82v291c0 29 -1 39 -10 39h-39c-7 0 -8 2 -8 5s1 5 8 5h143c7 0 9 -2 9 -5v-368c0 -29 1 -37 9 -37h42c7 0 8 -3 8 -6z" />
    <glyph glyph-name="logicalnot" unicode="&#xac;" horiz-adv-x="390" 
d="M370 164c0 -9 -3 -14 -10 -14s-11 5 -11 14v152h-316c-8 0 -13 2 -13 9s5 10 13 10h325c8 0 12 -4 12 -14v-157z" />
    <glyph glyph-name="nbspace" unicode="&#xa0;" horiz-adv-x="255" 
 />
    <glyph glyph-name="Agrave" unicode="&#xc0;" horiz-adv-x="637" 
d="M635 6c0 -3 -1 -6 -9 -6h-238c-8 0 -9 3 -9 6s1 6 9 6h41c18 0 24 8 10 50l-67 199c-1 3 -1 6 -8 6h-195c-7 0 -7 -3 -8 -6l-20 -61c-24 -76 -41 -188 39 -188h22c8 0 9 -3 9 -6s-1 -6 -9 -6h-191c-8 0 -9 3 -9 6s1 6 9 6h3c32 0 61 28 112 190l159 508c1 4 4 6 9 6h44
c5 0 7 -2 9 -6l223 -648c15 -43 21 -50 37 -50h19c8 0 9 -3 9 -6zM363 287l-99 306h-2l-94 -308c-1 -3 1 -6 8 -6h178c7 0 10 5 9 8zM319 728c-3 -2 -6 2 -8 5l-99 121c-15 18 -47 49 -47 72c0 19 17 35 36 35c32 0 46 -54 57 -79l61 -143c2 -4 3 -9 0 -11z" />
    <glyph glyph-name="Atilde" unicode="&#xc3;" horiz-adv-x="637" 
d="M635 6c0 -3 -1 -6 -9 -6h-238c-8 0 -9 3 -9 6s1 6 9 6h41c18 0 24 8 10 50l-67 199c-1 3 -1 6 -8 6h-195c-7 0 -7 -3 -8 -6l-20 -61c-24 -76 -41 -188 39 -188h22c8 0 9 -3 9 -6s-1 -6 -9 -6h-191c-8 0 -9 3 -9 6s1 6 9 6h3c32 0 61 28 112 190l159 508c1 4 4 6 9 6h44
c5 0 7 -2 9 -6l223 -648c15 -43 21 -50 37 -50h19c8 0 9 -3 9 -6zM363 287l-99 306h-2l-94 -308c-1 -3 1 -6 8 -6h178c7 0 10 5 9 8zM469 915c-14 -92 -44 -114 -84 -114c-36 0 -120 25 -154 25c-20 0 -37 -7 -49 -53c-1 -5 -1 -10 -7 -9c-4 1 -4 3 -3 8
c13 92 43 114 84 114c36 0 120 -24 153 -24c21 0 38 6 49 52c2 5 2 11 8 9c3 0 4 -3 3 -8z" />
    <glyph glyph-name="Otilde" unicode="&#xd5;" horiz-adv-x="657" 
d="M625 356c0 -202 -95 -368 -295 -368c-192 0 -297 165 -297 362c0 202 95 368 294 368c192 0 298 -165 298 -362zM474 209c8 97 8 198 0 295c-5 63 -7 204 -142 204c-154 0 -144 -141 -149 -211c-8 -97 -7 -197 0 -294c5 -63 7 -205 142 -205c154 0 144 141 149 211z
M483 915c-14 -92 -44 -114 -84 -114c-36 0 -120 25 -154 25c-20 0 -37 -7 -49 -53c-1 -5 -1 -10 -7 -9c-4 1 -4 3 -3 8c13 92 43 114 84 114c36 0 120 -24 153 -24c21 0 38 6 49 52c2 5 2 11 8 9c3 0 4 -3 3 -8z" />
    <glyph glyph-name="divide" unicode="&#xf7;" horiz-adv-x="390" 
d="M235 400c0 -23 -18 -40 -40 -40s-40 17 -40 40s18 40 40 40s40 -17 40 -40zM360 284c0 -7 -4 -10 -12 -10h-305c-8 0 -13 2 -13 9s5 10 13 10h305c8 0 12 -2 12 -9zM236 167c0 -23 -18 -40 -40 -40s-40 17 -40 40s18 40 40 40s40 -17 40 -40z" />
    <glyph glyph-name="ydieresis" unicode="&#xff;" horiz-adv-x="451" 
d="M449 416c0 -3 -1 -5 -8 -5c-32 0 -39 -27 -53 -56c-11 -25 -23 -54 -34 -82l-109 -266c-6 -14 -12 -29 -12 -40v-176c0 -49 -35 -76 -78 -76c-55 0 -108 39 -108 88c0 31 22 54 52 54c28 0 52 -19 52 -50c0 -35 -27 -39 -27 -57c0 -15 18 -24 38 -24c35 0 58 27 58 62
v179c0 10 -6 24 -13 39l-156 366c-14 32 -19 39 -31 39h-10c-7 0 -8 2 -8 5s1 5 8 5h187c7 0 9 -2 9 -5s-1 -5 -9 -5h-30c-13 0 -19 -8 -7 -39l109 -278h2l68 175c11 26 24 69 24 98c0 28 -13 44 -40 44h-17c-8 0 -9 2 -9 5s1 5 9 5h135c7 0 8 -2 8 -5zM372 646
c0 -32 -23 -56 -53 -56c-29 0 -54 24 -54 56c0 31 25 56 54 56c30 0 53 -25 53 -56zM215 646c0 -32 -23 -56 -53 -56c-29 0 -54 24 -54 56c0 31 25 56 54 56c30 0 53 -25 53 -56z" />
    <glyph glyph-name="Ydieresis" unicode="&#x178;" horiz-adv-x="661" 
d="M659 700c0 -3 -1 -6 -9 -6h-3c-57 0 -82 -48 -118 -104c-41 -64 -112 -178 -145 -233c-5 -8 -4 -9 -4 -19v-284c0 -32 1 -42 10 -42h46c8 0 9 -3 9 -6s-1 -6 -9 -6h-232c-8 0 -10 3 -10 6s1 6 10 6h45c9 0 11 10 11 42v276c0 6 -2 11 -6 18l-172 287
c-32 53 -41 59 -58 59h-13c-8 0 -9 3 -9 6s1 6 9 6h249c8 0 9 -3 9 -6s-1 -6 -9 -6h-47c-18 0 -21 -11 9 -61l156 -262c42 68 113 189 141 244c24 46 10 79 -40 79h-18c-8 0 -9 3 -9 6s1 6 9 6h189c8 0 9 -3 9 -6zM505 843c0 -32 -23 -56 -53 -56c-29 0 -54 24 -54 56
c0 31 25 56 54 56c30 0 53 -25 53 -56zM348 843c0 -32 -23 -56 -53 -56c-29 0 -54 24 -54 56c0 31 25 56 54 56c30 0 53 -25 53 -56z" />
    <glyph glyph-name="Acircumflex" unicode="&#xc2;" horiz-adv-x="637" 
d="M635 6c0 -3 -1 -6 -9 -6h-238c-8 0 -9 3 -9 6s1 6 9 6h41c18 0 24 8 10 50l-67 199c-1 3 -1 6 -8 6h-195c-7 0 -7 -3 -8 -6l-20 -61c-24 -76 -41 -188 39 -188h22c8 0 9 -3 9 -6s-1 -6 -9 -6h-191c-8 0 -9 3 -9 6s1 6 9 6h3c32 0 61 28 112 190l159 508c1 4 4 6 9 6h44
c5 0 7 -2 9 -6l223 -648c15 -43 21 -50 37 -50h19c8 0 9 -3 9 -6zM363 287l-99 306h-2l-94 -308c-1 -3 1 -6 8 -6h178c7 0 10 5 9 8zM441 728c-3 -2 -7 2 -9 5l-110 148h-1l-110 -148c-2 -3 -6 -7 -9 -5s-1 7 0 11l61 143c21 50 30 79 58 79c29 0 37 -29 58 -79l62 -143
c1 -4 3 -9 0 -11z" />
    <glyph glyph-name="Ecircumflex" unicode="&#xca;" horiz-adv-x="580" 
d="M532 7c0 -4 -2 -7 -9 -7h-482c-8 0 -9 3 -9 6s1 6 9 6h45c10 0 11 10 11 42v598c0 32 -1 42 -11 42h-45c-8 0 -9 3 -9 6s1 6 9 6h449c7 0 9 -4 9 -8v-215c0 -7 -3 -8 -6 -8c-4 0 -8 0 -8 8v11c0 106 -54 200 -158 200h-100c-7 0 -10 -3 -10 -6v-308c0 -3 2 -5 9 -5h60
c55 0 102 42 102 100v8c0 8 3 9 6 9s6 -2 6 -9v-228c0 -7 -3 -9 -6 -9s-6 1 -6 9v7c0 59 -47 102 -102 102h-59c-7 0 -10 -3 -10 -6v-340c0 -3 2 -6 9 -6h94c154 0 198 136 198 208v9c0 8 4 9 7 9c4 0 7 -2 7 -9v-222zM416 728c-3 -2 -7 2 -9 5l-110 148h-1l-110 -148
c-2 -3 -6 -7 -9 -5s-1 7 0 11l61 143c21 50 30 79 58 79c29 0 37 -29 58 -79l62 -143c1 -4 3 -9 0 -11z" />
    <glyph glyph-name="Aacute" unicode="&#xc1;" horiz-adv-x="637" 
d="M635 6c0 -3 -1 -6 -9 -6h-238c-8 0 -9 3 -9 6s1 6 9 6h41c18 0 24 8 10 50l-67 199c-1 3 -1 6 -8 6h-195c-7 0 -7 -3 -8 -6l-20 -61c-24 -76 -41 -188 39 -188h22c8 0 9 -3 9 -6s-1 -6 -9 -6h-191c-8 0 -9 3 -9 6s1 6 9 6h3c32 0 61 28 112 190l159 508c1 4 4 6 9 6h44
c5 0 7 -2 9 -6l223 -648c15 -43 21 -50 37 -50h19c8 0 9 -3 9 -6zM363 287l-99 306h-2l-94 -308c-1 -3 1 -6 8 -6h178c7 0 10 5 9 8zM466 926c0 -23 -31 -54 -46 -72l-99 -121c-2 -3 -6 -7 -9 -5s-1 7 1 11l61 143c10 25 24 79 57 79c19 0 35 -16 35 -35z" />
    <glyph glyph-name="Edieresis" unicode="&#xcb;" horiz-adv-x="580" 
d="M532 7c0 -4 -2 -7 -9 -7h-482c-8 0 -9 3 -9 6s1 6 9 6h45c10 0 11 10 11 42v598c0 32 -1 42 -11 42h-45c-8 0 -9 3 -9 6s1 6 9 6h449c7 0 9 -4 9 -8v-215c0 -7 -3 -8 -6 -8c-4 0 -8 0 -8 8v11c0 106 -54 200 -158 200h-100c-7 0 -10 -3 -10 -6v-308c0 -3 2 -5 9 -5h60
c55 0 102 42 102 100v8c0 8 3 9 6 9s6 -2 6 -9v-228c0 -7 -3 -9 -6 -9s-6 1 -6 9v7c0 59 -47 102 -102 102h-59c-7 0 -10 -3 -10 -6v-340c0 -3 2 -6 9 -6h94c154 0 198 136 198 208v9c0 8 4 9 7 9c4 0 7 -2 7 -9v-222zM417 834c0 -32 -23 -56 -53 -56c-29 0 -54 24 -54 56
c0 31 25 56 54 56c30 0 53 -25 53 -56zM260 834c0 -32 -23 -56 -53 -56c-29 0 -54 24 -54 56c0 31 25 56 54 56c30 0 53 -25 53 -56z" />
    <glyph glyph-name="Egrave" unicode="&#xc8;" horiz-adv-x="580" 
d="M532 7c0 -4 -2 -7 -9 -7h-482c-8 0 -9 3 -9 6s1 6 9 6h45c10 0 11 10 11 42v598c0 32 -1 42 -11 42h-45c-8 0 -9 3 -9 6s1 6 9 6h449c7 0 9 -4 9 -8v-215c0 -7 -3 -8 -6 -8c-4 0 -8 0 -8 8v11c0 106 -54 200 -158 200h-100c-7 0 -10 -3 -10 -6v-308c0 -3 2 -5 9 -5h60
c55 0 102 42 102 100v8c0 8 3 9 6 9s6 -2 6 -9v-228c0 -7 -3 -9 -6 -9s-6 1 -6 9v7c0 59 -47 102 -102 102h-59c-7 0 -10 -3 -10 -6v-340c0 -3 2 -6 9 -6h94c154 0 198 136 198 208v9c0 8 4 9 7 9c4 0 7 -2 7 -9v-222zM304 728c-3 -2 -6 2 -8 5l-99 121
c-15 18 -47 49 -47 72c0 19 17 35 36 35c32 0 46 -54 57 -79l61 -143c2 -4 3 -9 0 -11z" />
    <glyph glyph-name="Iacute" unicode="&#xcd;" horiz-adv-x="313" 
d="M282 6c0 -3 -1 -6 -9 -6h-232c-8 0 -9 3 -9 6s1 6 9 6h45c10 0 11 10 11 42v598c0 32 -1 42 -11 42h-45c-8 0 -9 3 -9 6s1 6 9 6h232c8 0 9 -3 9 -6s-1 -6 -9 -6h-46c-9 0 -10 -10 -10 -42v-598c0 -32 1 -42 10 -42h46c8 0 9 -3 9 -6zM303 926c0 -23 -31 -54 -46 -72
l-99 -121c-2 -3 -6 -7 -9 -5s-1 7 1 11l61 143c10 25 24 79 57 79c19 0 35 -16 35 -35z" />
    <glyph glyph-name="Icircumflex" unicode="&#xce;" horiz-adv-x="313" 
d="M282 6c0 -3 -1 -6 -9 -6h-232c-8 0 -9 3 -9 6s1 6 9 6h45c10 0 11 10 11 42v598c0 32 -1 42 -11 42h-45c-8 0 -9 3 -9 6s1 6 9 6h232c8 0 9 -3 9 -6s-1 -6 -9 -6h-46c-9 0 -10 -10 -10 -42v-598c0 -32 1 -42 10 -42h46c8 0 9 -3 9 -6zM279 728c-3 -2 -7 2 -9 5l-110 148
h-1l-110 -148c-2 -3 -6 -7 -9 -5s-1 7 0 11l61 143c21 50 30 79 58 79c29 0 37 -29 58 -79l62 -143c1 -4 3 -9 0 -11z" />
    <glyph glyph-name="Idieresis" unicode="&#xcf;" horiz-adv-x="313" 
d="M282 6c0 -3 -1 -6 -9 -6h-232c-8 0 -9 3 -9 6s1 6 9 6h45c10 0 11 10 11 42v598c0 32 -1 42 -11 42h-45c-8 0 -9 3 -9 6s1 6 9 6h232c8 0 9 -3 9 -6s-1 -6 -9 -6h-46c-9 0 -10 -10 -10 -42v-598c0 -32 1 -42 10 -42h46c8 0 9 -3 9 -6zM289 869c0 -32 -23 -56 -53 -56
c-29 0 -54 24 -54 56c0 31 25 56 54 56c30 0 53 -25 53 -56zM132 869c0 -32 -23 -56 -53 -56c-29 0 -54 24 -54 56c0 31 25 56 54 56c30 0 53 -25 53 -56z" />
    <glyph glyph-name="Igrave" unicode="&#xcc;" horiz-adv-x="313" 
d="M282 6c0 -3 -1 -6 -9 -6h-232c-8 0 -9 3 -9 6s1 6 9 6h45c10 0 11 10 11 42v598c0 32 -1 42 -11 42h-45c-8 0 -9 3 -9 6s1 6 9 6h232c8 0 9 -3 9 -6s-1 -6 -9 -6h-46c-9 0 -10 -10 -10 -42v-598c0 -32 1 -42 10 -42h46c8 0 9 -3 9 -6zM168 728c-3 -2 -6 2 -8 5l-99 121
c-15 18 -47 49 -47 72c0 19 17 35 36 35c32 0 46 -54 57 -79l61 -143c2 -4 3 -9 0 -11z" />
    <glyph glyph-name="Oacute" unicode="&#xd3;" horiz-adv-x="657" 
d="M625 356c0 -202 -95 -368 -295 -368c-192 0 -297 165 -297 362c0 202 95 368 294 368c192 0 298 -165 298 -362zM474 209c8 97 8 198 0 295c-5 63 -7 204 -142 204c-154 0 -144 -141 -149 -211c-8 -97 -7 -197 0 -294c5 -63 7 -205 142 -205c154 0 144 141 149 211z
M474 928c0 -23 -31 -54 -46 -72l-99 -121c-2 -3 -6 -7 -9 -5s-1 7 1 11l61 143c10 25 24 79 57 79c19 0 35 -16 35 -35z" />
    <glyph glyph-name="Ocircumflex" unicode="&#xd4;" horiz-adv-x="657" 
d="M625 356c0 -202 -95 -368 -295 -368c-192 0 -297 165 -297 362c0 202 95 368 294 368c192 0 298 -165 298 -362zM474 209c8 97 8 198 0 295c-5 63 -7 204 -142 204c-154 0 -144 -141 -149 -211c-8 -97 -7 -197 0 -294c5 -63 7 -205 142 -205c154 0 144 141 149 211z
M440 738c-3 -2 -7 2 -9 5l-110 148h-1l-110 -148c-2 -3 -6 -7 -9 -5s-1 7 0 11l61 143c21 50 30 79 58 79c29 0 37 -29 58 -79l62 -143c1 -4 3 -9 0 -11z" />
    <glyph glyph-name="Ograve" unicode="&#xd2;" horiz-adv-x="657" 
d="M625 356c0 -202 -95 -368 -295 -368c-192 0 -297 165 -297 362c0 202 95 368 294 368c192 0 298 -165 298 -362zM474 209c8 97 8 198 0 295c-5 63 -7 204 -142 204c-154 0 -144 -141 -149 -211c-8 -97 -7 -197 0 -294c5 -63 7 -205 142 -205c154 0 144 141 149 211z
M335 738c-3 -2 -6 2 -8 5l-99 121c-15 18 -47 49 -47 72c0 19 17 35 36 35c32 0 46 -54 57 -79l61 -143c2 -4 3 -9 0 -11z" />
    <glyph glyph-name="Uacute" unicode="&#xda;" horiz-adv-x="672" 
d="M651 700c0 -3 -1 -6 -9 -6h-3c-47 0 -61 -38 -61 -224v-262c0 -134 -56 -220 -232 -220c-162 0 -257 97 -257 197v467c0 32 -1 42 -10 42h-46c-8 0 -9 3 -9 6s1 6 9 6h240c8 0 10 -3 10 -6s-1 -6 -10 -6h-53c-10 0 -11 -10 -11 -42v-507c0 -96 60 -143 152 -143
c161 0 203 83 203 209v251c0 166 -17 232 -91 232h-12c-8 0 -9 3 -9 6s1 6 9 6h181c8 0 9 -3 9 -6zM506 926c0 -23 -31 -54 -46 -72l-99 -121c-2 -3 -6 -7 -9 -5s-1 7 1 11l61 143c10 25 24 79 57 79c19 0 35 -16 35 -35z" />
    <glyph glyph-name="Ucircumflex" unicode="&#xdb;" horiz-adv-x="672" 
d="M651 700c0 -3 -1 -6 -9 -6h-3c-47 0 -61 -38 -61 -224v-262c0 -134 -56 -220 -232 -220c-162 0 -257 97 -257 197v467c0 32 -1 42 -10 42h-46c-8 0 -9 3 -9 6s1 6 9 6h240c8 0 10 -3 10 -6s-1 -6 -10 -6h-53c-10 0 -11 -10 -11 -42v-507c0 -96 60 -143 152 -143
c161 0 203 83 203 209v251c0 166 -17 232 -91 232h-12c-8 0 -9 3 -9 6s1 6 9 6h181c8 0 9 -3 9 -6zM499 728c-3 -2 -7 2 -9 5l-110 148h-1l-110 -148c-2 -3 -6 -7 -9 -5s-1 7 0 11l61 143c21 50 30 79 58 79c29 0 37 -29 58 -79l62 -143c1 -4 3 -9 0 -11z" />
    <glyph glyph-name="Ugrave" unicode="&#xd9;" horiz-adv-x="672" 
d="M651 700c0 -3 -1 -6 -9 -6h-3c-47 0 -61 -38 -61 -224v-262c0 -134 -56 -220 -232 -220c-162 0 -257 97 -257 197v467c0 32 -1 42 -10 42h-46c-8 0 -9 3 -9 6s1 6 9 6h240c8 0 10 -3 10 -6s-1 -6 -10 -6h-53c-10 0 -11 -10 -11 -42v-507c0 -96 60 -143 152 -143
c161 0 203 83 203 209v251c0 166 -17 232 -91 232h-12c-8 0 -9 3 -9 6s1 6 9 6h181c8 0 9 -3 9 -6zM382 728c-3 -2 -6 2 -8 5l-99 121c-15 18 -47 49 -47 72c0 19 17 35 36 35c32 0 46 -54 57 -79l61 -143c2 -4 3 -9 0 -11z" />
    <glyph glyph-name="Euro" unicode="&#x20ac;" horiz-adv-x="542" 
d="M520 114c0 -80 -88 -126 -176 -126c-174 0 -240 134 -254 252h-63c-6 0 -9 2 -9 7c0 6 3 8 9 8h61c-1 11 -1 23 -1 34c0 15 1 31 2 47h-62c-6 0 -9 3 -9 8s3 7 9 7h64c14 117 74 242 241 242c97 0 174 -48 174 -118c0 -34 -24 -57 -55 -57c-30 0 -55 21 -55 54
c0 39 28 42 28 63c0 24 -33 48 -88 48c-97 0 -108 -77 -116 -159c-2 -22 -3 -47 -4 -73h238c6 0 8 -2 8 -7s-2 -8 -8 -8h-239c-1 -27 -1 -54 -1 -81h240c6 0 8 -1 8 -7c0 -5 -2 -8 -8 -8h-239c1 -27 2 -53 4 -77c8 -87 30 -165 131 -165c29 0 86 14 86 54
c0 23 -29 27 -29 66c0 33 26 55 57 55c32 0 56 -23 56 -59z" />
    <glyph glyph-name="ff" unicode="&#xfb00;" horiz-adv-x="546" 
d="M618 627c0 -32 -22 -55 -54 -55c-29 0 -54 20 -54 52c0 36 28 40 28 59c0 18 -24 25 -47 25c-43 0 -51 -29 -51 -56v-224c0 -3 2 -7 10 -7h68c9 0 10 -3 10 -6s-2 -6 -10 -6h-68c-8 0 -10 -3 -10 -6v-354c0 -29 1 -38 10 -38h51c8 0 9 -3 9 -6s-1 -5 -9 -5h-214
c-7 0 -8 2 -8 5s1 6 8 6h41c8 0 9 9 9 38v354c0 3 -2 6 -10 6h-142c-8 0 -10 -3 -10 -6v-354c0 -29 1 -38 9 -38h41c8 0 9 -3 9 -6s-2 -5 -9 -5h-204c-7 0 -8 2 -8 5s1 6 8 6h42c8 0 9 9 9 38v354c0 3 -2 6 -10 6h-31c-9 0 -10 3 -10 6s2 6 10 6h31c8 0 10 4 10 7v122
c0 107 83 168 190 168c35 0 89 -13 118 -43c28 27 67 43 117 43c59 0 121 -36 121 -91zM338 569c-24 4 -45 23 -45 53c0 33 28 39 28 58c0 16 -22 28 -62 28c-57 0 -84 -33 -84 -81v-199c0 -3 2 -7 10 -7h142c8 0 10 4 10 7v120c0 7 0 15 1 21z" />
    <glyph glyph-name="ffi" unicode="&#xfb03;" horiz-adv-x="777" 
d="M765 5c0 -3 -1 -5 -9 -5h-203c-8 0 -9 2 -9 5s1 6 9 6h40c9 0 10 9 10 38v324c0 29 -1 36 -10 36h-143c-8 0 -10 -3 -10 -6v-354c0 -29 1 -38 10 -38h41c7 0 8 -3 8 -6s-1 -5 -8 -5h-204c-7 0 -8 2 -8 5s1 6 8 6h41c8 0 9 9 9 38v354c0 3 -2 6 -10 6h-142
c-8 0 -10 -3 -10 -6v-354c0 -29 1 -38 9 -38h41c8 0 9 -3 9 -6s-2 -5 -9 -5h-204c-7 0 -8 2 -8 5s1 6 8 6h42c8 0 9 9 9 38v354c0 3 -2 6 -10 6h-31c-9 0 -10 3 -10 6s2 6 10 6h31c8 0 10 4 10 7v122c0 107 83 168 190 168c39 0 98 -17 125 -52c38 35 92 52 149 52
c63 0 161 -30 161 -97c0 -35 -25 -57 -57 -57s-59 22 -59 56c0 32 26 37 26 58c0 16 -26 30 -74 30c-62 0 -93 -33 -93 -82v-198c0 -3 2 -7 10 -7h247c7 0 9 -2 9 -5v-367c0 -29 1 -38 9 -38h41c8 0 9 -3 9 -6zM339 569c-25 3 -46 22 -46 53c0 33 28 39 28 58
c0 16 -22 28 -62 28c-57 0 -84 -33 -84 -81v-199c0 -3 2 -7 10 -7h142c8 0 10 4 10 7v111c0 9 0 21 2 30z" />
    <glyph glyph-name="ffl" unicode="&#xfb04;" horiz-adv-x="777" 
d="M765 5c0 -3 -1 -5 -9 -5h-203c-8 0 -9 2 -9 5s1 6 9 6h40c9 0 10 9 10 38v523c-20 7 -35 25 -35 50c0 33 29 39 29 58c0 15 -23 28 -69 28c-60 0 -88 -34 -88 -81v-199c0 -3 2 -7 10 -7h68c9 0 10 -3 10 -6s-2 -6 -10 -6h-68c-8 0 -10 -3 -10 -6v-354c0 -29 1 -38 10 -38
h41c7 0 8 -3 8 -6s-1 -5 -8 -5h-204c-7 0 -8 2 -8 5s1 6 8 6h41c8 0 9 9 9 38v354c0 3 -2 6 -10 6h-142c-8 0 -10 -3 -10 -6v-354c0 -29 1 -38 9 -38h41c8 0 9 -3 9 -6s-2 -5 -9 -5h-204c-7 0 -8 2 -8 5s1 6 8 6h42c8 0 9 9 9 38v354c0 3 -2 6 -10 6h-31c-9 0 -10 3 -10 6
s2 6 10 6h31c8 0 10 4 10 7v122c0 107 83 168 190 168c38 0 96 -16 123 -50c35 32 86 50 144 50c21 0 47 -4 71 -12h97c7 0 9 -2 9 -5v-652c0 -29 1 -38 9 -38h41c8 0 9 -3 9 -6zM339 569c-25 3 -46 22 -46 53c0 33 28 39 28 58c0 16 -22 28 -62 28c-57 0 -84 -33 -84 -81
v-199c0 -3 2 -7 10 -7h142c8 0 10 4 10 7v110c0 9 0 22 2 31z" />
    <glyph glyph-name="Eth" unicode="&#xd0;" horiz-adv-x="657" 
d="M624 356c0 -195 -93 -356 -295 -356h-288c-8 0 -9 3 -9 6s1 6 9 6h45c10 0 11 10 11 42v303c0 3 -3 6 -10 6h-57c-7 0 -10 2 -10 8c0 5 3 8 10 8h56c7 0 11 3 11 6v267c0 32 -1 42 -11 42h-45c-8 0 -9 3 -9 6s1 6 9 6h288c192 0 295 -163 295 -350zM474 210
c7 97 7 196 0 293c-5 65 -16 191 -145 191h-102c-7 0 -10 -3 -10 -6v-303c0 -3 3 -6 10 -6h115c6 0 9 -2 9 -7s-3 -9 -9 -9h-115c-7 0 -10 -3 -10 -6v-339c0 -3 2 -6 9 -6h102c138 0 140 119 146 198z" />
    </font>
</defs>
</svg>
